<svg width="136" height="275" viewBox="0 0 136 275" fill="none" xmlns="http://www.w3.org/2000/svg">
<path d="M118.033 60.5976C118.363 60.1547 118.272 59.5282 117.829 59.1982C117.386 58.8682 116.76 58.9596 116.429 59.4024L118.033 60.5976ZM114.428 63.8281L113.724 63.118L113.724 63.118L114.428 63.8281ZM113.632 65.6804L114.515 65.2116L114.515 65.2116L113.632 65.6804ZM116.212 69.2306L115.388 69.7974L115.388 69.7974L116.212 69.2306ZM117.454 71.8856L118.407 72.1882L118.407 72.1882L117.454 71.8856ZM116.929 78.7699L115.946 78.5855L115.946 78.5855L116.929 78.7699ZM116.387 80.2981L117.379 80.1701L117.379 80.1701L116.387 80.2981ZM116.021 82.2275L115.406 81.439L115.406 81.439L116.021 82.2275ZM115.129 83.6168L115.934 83.0234L115.934 83.0234L115.129 83.6168ZM116.658 89.9917L115.818 89.4497L115.818 89.4497L116.658 89.9917ZM116.929 93.7426L117.912 93.5582L117.912 93.5582L116.929 93.7426ZM117.741 96.1815L116.832 95.7646L116.832 95.7646L117.741 96.1815ZM115.925 98.9599L115.101 99.5267L115.101 99.5267L115.925 98.9599ZM118.028 100.905L118.95 100.517L118.95 100.517L118.028 100.905ZM118.123 102.942L119.11 102.779L119.11 102.779L118.123 102.942ZM118.091 111.679L117.357 111.001L117.357 111.001L118.091 111.679ZM118.665 115.507L117.832 116.06L117.832 116.06L118.665 115.507ZM117.805 118.779L118.666 119.287L118.666 119.287L117.805 118.779ZM114.81 122.499L114.171 121.73L114.171 121.73L114.81 122.499ZM115.224 128.967L116.224 128.927L116.224 128.927L115.224 128.967ZM116.53 135.975L115.835 136.693L115.835 136.693L116.53 135.975ZM116.085 140.698L116.521 139.798L116.521 139.798L116.085 140.698ZM120.481 144.187L121.348 144.684L121.348 144.684L120.481 144.187ZM116.722 146.471L115.784 146.82L115.784 146.82L116.722 146.471ZM119.684 149.327L120.464 149.953L120.464 149.953L119.684 149.327ZM116.881 155.424L117.842 155.7L117.842 155.7L116.881 155.424ZM115.527 163.25L114.539 163.407L114.539 163.407L115.527 163.25ZM115.83 174.086L116.771 173.748L116.771 173.748L115.83 174.086ZM117.215 176L118.19 175.776L118.19 175.776L117.215 176ZM115.065 177.96L115.52 178.851L115.52 178.851L115.065 177.96ZM115.001 180.523L115.734 179.842L115.734 179.842L115.001 180.523ZM116.499 183.502L117.279 182.876L117.279 182.876L116.499 183.502ZM119.175 189.259L119.907 188.579L119.907 188.579L119.175 189.259ZM118.394 199.061L117.419 198.838L117.419 198.838L118.394 199.061ZM118.39 199.081L119.364 199.304L119.364 199.304L118.39 199.081ZM117.231 201.701L117.947 202.398L117.947 202.398L117.231 201.701ZM115.798 208.214L116.734 207.863L116.734 207.863L115.798 208.214ZM117.168 214.142L118.149 214.335L118.149 214.335L117.168 214.142ZM116.658 216.488L117.657 216.45L117.657 216.45L116.658 216.488ZM117.502 219.066L118.477 219.289L118.477 219.289L117.502 219.066ZM115.431 222.786L116.098 223.531L116.098 223.531L115.431 222.786ZM117.008 225.256L116.276 225.936L116.276 225.936L117.008 225.256ZM115.575 240.259L116.284 240.964L116.284 240.964L115.575 240.259ZM115.941 242.96L115.074 243.458L115.074 243.458L115.941 242.96ZM115.001 250.107L115.734 250.788L115.734 250.788L115.001 250.107ZM115.097 253.071L114.208 253.529L114.208 253.529L115.097 253.071ZM115.938 251.99C115.938 251.438 115.49 250.99 114.938 250.99C114.385 250.99 113.938 251.438 113.938 251.99H115.938ZM116.552 59.8129C116.449 60.3555 116.805 60.879 117.348 60.9823C117.89 61.0857 118.414 60.7296 118.517 60.1871L116.552 59.8129ZM118.952 55.7373L119.814 56.2447L119.814 56.2447L118.952 55.7373ZM119.498 54.1429L118.499 54.1894L118.499 54.1894L119.498 54.1429ZM118.162 51.6536L117.324 52.1995L117.324 52.1995L118.162 51.6536ZM116.676 49.8964L115.909 50.5387L115.909 50.5387L116.676 49.8964ZM115.326 47.4722L114.656 46.7305L114.656 46.7305L115.326 47.4722ZM115.872 45.1294L115.117 45.7858L115.117 45.7858L115.872 45.1294ZM113.609 42.8679L112.672 43.2168L113.609 42.8679ZM116.43 40.2321L115.878 39.3987L115.878 39.3987L116.43 40.2321ZM116.935 37.7429L117.498 36.9167L117.498 36.9167L116.935 37.7429ZM116.362 35.1071L115.419 35.4398L115.419 35.4398L116.362 35.1071ZM116.935 29.5429L117.498 30.369L117.498 30.369L116.935 29.5429ZM118.148 27.3464L119.125 27.1311L119.125 27.1311L118.148 27.3464ZM118.148 22.2214L118.839 22.9447L118.839 22.9447L118.148 22.2214ZM119.271 19C119.271 18.4477 118.823 18 118.271 18C117.718 18 117.271 18.4477 117.271 19H119.271ZM20.0331 60.5976C20.3632 60.1547 20.2717 59.5282 19.8289 59.1982C19.386 58.8682 18.7595 58.9596 18.4295 59.4024L20.0331 60.5976ZM16.428 63.8281L15.7239 63.118L15.7239 63.118L16.428 63.8281ZM15.6316 65.6804L16.5149 65.2116L16.5149 65.2116L15.6316 65.6804ZM18.2119 69.2306L17.388 69.7974L17.388 69.7974L18.2119 69.2306ZM19.4543 71.8856L20.4074 72.1882L20.4074 72.1882L19.4543 71.8856ZM18.9287 78.7699L17.9458 78.5855L17.9458 78.5855L18.9287 78.7699ZM18.3871 80.2981L19.3789 80.1701L19.3789 80.1701L18.3871 80.2981ZM18.0208 82.2275L17.4058 81.439L17.4058 81.439L18.0208 82.2275ZM17.1288 83.6168L17.9338 83.0234L17.9338 83.0234L17.1288 83.6168ZM18.6579 89.9917L17.8175 89.4497L17.8175 89.4497L18.6579 89.9917ZM18.9287 93.7426L19.9115 93.5582L19.9115 93.5582L18.9287 93.7426ZM19.741 96.1815L18.832 95.7646L18.832 95.7646L19.741 96.1815ZM17.9252 98.9599L17.1013 99.5267L17.1013 99.5267L17.9252 98.9599ZM20.0277 100.905L20.9496 100.517L20.9496 100.517L20.0277 100.905ZM20.1233 102.942L21.1099 102.779L21.1099 102.779L20.1233 102.942ZM20.0914 111.679L19.3567 111.001L19.3567 111.001L20.0914 111.679ZM20.6648 115.507L19.8315 116.06L19.8315 116.06L20.6648 115.507ZM19.8047 118.779L20.6661 119.287L20.6661 119.287L19.8047 118.779ZM16.8103 122.499L16.1713 121.73L16.1713 121.73L16.8103 122.499ZM17.2244 128.967L18.2236 128.927L18.2236 128.927L17.2244 128.967ZM18.5305 135.975L17.8346 136.693L17.8346 136.693L18.5305 135.975ZM18.0845 140.698L18.5206 139.798L18.5206 139.798L18.0845 140.698ZM22.4806 144.187L23.3482 144.684L23.3482 144.684L22.4806 144.187ZM18.7216 146.471L17.7842 146.82L17.7842 146.82L18.7216 146.471ZM21.6842 149.327L22.4641 149.953L22.4641 149.953L21.6842 149.327ZM18.8809 155.424L19.8422 155.7L19.8422 155.7L18.8809 155.424ZM17.527 163.25L16.5394 163.407L16.5394 163.407L17.527 163.25ZM17.8297 174.086L18.7709 173.748L18.7709 173.748L17.8297 174.086ZM19.2154 176L20.1901 175.776L20.1901 175.776L19.2154 176ZM17.0651 177.96L17.5205 178.851L17.5205 178.851L17.0651 177.96ZM17.0014 180.523L17.7341 179.842L17.7341 179.842L17.0014 180.523ZM18.4986 183.502L19.2785 182.876L19.2785 182.876L18.4986 183.502ZM21.1745 189.259L21.9073 188.579L21.9073 188.579L21.1745 189.259ZM20.3941 199.061L19.4194 198.838L19.4193 198.838L20.3941 199.061ZM20.3896 199.081L21.3643 199.304L21.3643 199.304L20.3896 199.081ZM19.2313 201.701L19.9475 202.398L19.9475 202.398L19.2313 201.701ZM17.7978 208.214L18.7341 207.863L18.7341 207.863L17.7978 208.214ZM19.1676 214.142L20.1488 214.335L20.1488 214.335L19.1676 214.142ZM18.6579 216.488L19.6572 216.45L19.6572 216.45L18.6579 216.488ZM19.5021 219.066L20.4768 219.289L20.4768 219.289L19.5021 219.066ZM17.4315 222.786L18.0982 223.531L18.0982 223.531L17.4315 222.786ZM19.0083 225.256L18.2756 225.936L18.2756 225.936L19.0083 225.256ZM17.5748 240.259L18.2837 240.964L18.2837 240.964L17.5748 240.259ZM17.9412 242.96L17.0736 243.458L17.0736 243.458L17.9412 242.96ZM17.0014 250.107L17.7341 250.788L17.7342 250.788L17.0014 250.107ZM17.097 253.071L16.2083 253.529L16.2083 253.529L17.097 253.071ZM17.9377 251.99C17.9377 251.438 17.49 250.99 16.9377 250.99C16.3854 250.99 15.9377 251.438 15.9377 251.99H17.9377ZM17.5523 59.8129C17.449 60.3555 17.805 60.879 18.3476 60.9823C18.8901 61.0857 19.4137 60.7296 19.517 60.1871L17.5523 59.8129ZM19.9524 55.7373L20.8141 56.2447L20.8141 56.2447L19.9524 55.7373ZM20.4976 54.1429L19.4987 54.1894L19.4987 54.1894L20.4976 54.1429ZM19.1617 51.6536L18.3239 52.1995L18.3239 52.1995L19.1617 51.6536ZM17.6758 49.8964L16.9093 50.5387L16.9093 50.5387L17.6758 49.8964ZM16.3263 47.4722L15.6556 46.7305L15.6556 46.7305L16.3263 47.4722ZM16.8716 45.1294L16.1171 45.7858L16.1171 45.7858L16.8716 45.1294ZM14.6087 42.8679L13.6715 43.2168L14.6087 42.8679ZM17.4305 40.2321L16.8778 39.3987L16.8778 39.3987L17.4305 40.2321ZM17.9348 37.7429L18.4983 36.9167L18.4983 36.9167L17.9348 37.7429ZM17.3623 35.1071L16.4193 35.4398L16.4193 35.4398L17.3623 35.1071ZM17.9348 29.5429L18.4983 30.369L18.4983 30.369L17.9348 29.5429ZM19.1481 27.3464L20.1246 27.1311L20.1246 27.1311L19.1481 27.3464ZM19.1481 22.2214L19.8387 22.9447L19.8387 22.9447L19.1481 22.2214ZM20.2708 19C20.2708 18.4477 19.823 18 19.2708 18C18.7185 18 18.2708 18.4477 18.2708 19H20.2708ZM120.5 6H121.5V5H120.5V6ZM16.5 6V5H15.5V6H16.5ZM16.5 19H15.5V20H16.5V19ZM120.5 19V20H121.5V19H120.5ZM118.5 255H119.5V254H118.5V255ZM14.5 255V254H13.5V255H14.5ZM14.5 268H13.5V269H14.5V268ZM118.5 268V269H119.5V268H118.5ZM121 1.5V0.5H120V1.5H121ZM121 24.5H120V25.5H121V24.5ZM124.5 24.5V25.5H125.5V24.5H124.5ZM124.5 1.5H125.5V0.5H124.5V1.5ZM129.5 8H130.5V7H129.5V8ZM129.5 16L129.55 16.9988L130.5 16.9512V16H129.5ZM134.5 14V15H135.5V14H134.5ZM134.5 10H135.5V9H134.5V10ZM118.5 250.5V249.5H117.5V250.5H118.5ZM118.5 273.5H117.5V274.5H118.5V273.5ZM122 273.5V274.5H123V273.5H122ZM122 250.5H123V249.5H122V250.5ZM127 257H128V256H127V257ZM127 265L127.05 265.999L128 265.951V265H127ZM132 263V264H133V263H132ZM132 259H133V258H132V259ZM14.5 251H15.5V250H14.5V251ZM14.5 274V275H15.5V274H14.5ZM11 274H10V275H11V274ZM11 251V250H10V251H11ZM6 257.5V256.5H5V257.5H6ZM6 265.5H5V266.451L5.95006 266.499L6 265.5ZM1 263.5H0V264.5H1V263.5ZM1 259.5V258.5H0V259.5H1ZM16.5 2H17.5V1H16.5V2ZM16.5 25V26H17.5V25H16.5ZM13 25H12V26H13V25ZM13 2V1H12V2H13ZM8 8.5V7.5H7V8.5H8ZM8 16.5H7V17.4512L7.95006 17.4988L8 16.5ZM3 14.5H2V15.5H3V14.5ZM3 10.5V9.5H2V10.5H3ZM116.429 59.4024C115.932 60.0698 115.48 60.7998 115.071 61.4116C114.644 62.0491 114.226 62.6197 113.724 63.118L115.132 64.5381C115.778 63.8976 116.284 63.1951 116.733 62.5238C117.2 61.8268 117.575 61.2122 118.033 60.5976L116.429 59.4024ZM113.724 63.118C113.544 63.2962 113.095 63.6896 112.827 64.1165C112.674 64.3598 112.536 64.6711 112.506 65.0447C112.475 65.4274 112.563 65.8003 112.748 66.1491L114.515 65.2116C114.487 65.1592 114.503 65.1649 114.5 65.2061C114.497 65.2383 114.487 65.234 114.521 65.1794C114.559 65.1196 114.624 65.0388 114.737 64.9231C114.792 64.867 114.852 64.8095 114.919 64.7445C114.984 64.6826 115.06 64.61 115.132 64.5381L113.724 63.118ZM112.748 66.1491C113.105 66.8218 113.606 67.4887 114.077 68.0896C114.57 68.7184 115.024 69.2677 115.388 69.7974L117.036 68.6638C116.624 68.0658 116.099 67.4267 115.651 66.8557C115.182 66.2569 114.781 65.7124 114.515 65.2116L112.748 66.1491ZM115.388 69.7974C115.541 70.0204 115.734 70.2539 115.885 70.4412C116.049 70.6456 116.189 70.8241 116.301 70.9984C116.537 71.366 116.523 71.515 116.501 71.5829L118.407 72.1882C118.704 71.2538 118.321 70.4423 117.983 69.9166C117.808 69.6441 117.608 69.3927 117.443 69.1871C117.264 68.9645 117.135 68.8079 117.036 68.6638L115.388 69.7974ZM116.501 71.5829C116.253 72.3652 116.195 73.1652 116.19 73.8987C116.187 74.2669 116.198 74.6336 116.209 74.9786C116.22 75.3299 116.231 75.657 116.231 75.976H118.231C118.231 75.6187 118.219 75.2569 118.208 74.9153C118.197 74.5674 118.188 74.2369 118.19 73.9123C118.194 73.2601 118.248 72.6912 118.407 72.1882L116.501 71.5829ZM116.231 75.976C116.231 76.6934 116.093 77.803 115.946 78.5855L117.912 78.9543C118.07 78.1111 118.231 76.8666 118.231 75.976H116.231ZM115.946 78.5855C115.931 78.6648 115.905 78.6942 115.719 79.02C115.556 79.3035 115.312 79.7789 115.395 80.426L117.379 80.1701C117.378 80.1654 117.378 80.1699 117.379 80.1648C117.385 80.1473 117.4 80.1088 117.454 80.0136C117.531 79.8788 117.817 79.459 117.912 78.9543L115.946 78.5855ZM115.395 80.426C115.433 80.7172 115.494 80.9605 115.533 81.1226C115.554 81.2093 115.566 81.2639 115.575 81.3094C115.582 81.3526 115.583 81.3667 115.582 81.3639C115.582 81.332 115.595 81.278 115.614 81.2463C115.616 81.2416 115.579 81.3037 115.406 81.439L116.636 83.016C116.908 82.8041 117.154 82.566 117.327 82.2777C117.517 81.9625 117.588 81.6416 117.582 81.3287C117.577 81.0602 117.514 80.8056 117.477 80.6551C117.435 80.478 117.401 80.3376 117.379 80.1701L115.395 80.426ZM115.406 81.439C115.348 81.4842 115.264 81.5329 115.09 81.6295C114.954 81.7048 114.713 81.8353 114.51 82.0055C114.297 82.1843 114 82.5092 113.947 83.0097C113.896 83.4969 114.102 83.9084 114.324 84.2101L115.934 83.0234C115.857 82.9192 115.959 83.0055 115.936 83.2203C115.912 83.4485 115.777 83.5538 115.795 83.5381C115.824 83.5139 115.886 83.4749 116.06 83.3781C116.196 83.3026 116.43 83.1763 116.636 83.016L115.406 81.439ZM114.324 84.2101C114.47 84.4089 114.617 84.5718 114.731 84.6976C114.856 84.835 114.925 84.9098 114.983 84.9863C115.033 85.0513 115.052 85.0891 115.062 85.1161C115.071 85.1409 115.085 85.1889 115.085 85.2838H117.085C117.085 84.6222 116.863 84.1525 116.573 83.7728C116.45 83.6111 116.308 83.4596 116.211 83.3526C116.103 83.2341 116.016 83.1346 115.934 83.0234L114.324 84.2101ZM115.085 85.2838C115.085 85.8063 115.212 86.3136 115.345 86.7433C115.412 86.9626 115.487 87.1813 115.557 87.3835C115.629 87.5911 115.695 87.7819 115.753 87.9698C116.005 88.7757 115.998 89.1703 115.818 89.4497L117.498 90.5337C118.216 89.4213 117.922 88.2029 117.662 87.3733C117.593 87.1524 117.517 86.9329 117.448 86.7318C117.377 86.5255 117.312 86.3373 117.256 86.1545C117.141 85.78 117.085 85.5023 117.085 85.2838H115.085ZM115.818 89.4497C115.255 90.3216 115.331 91.301 115.471 92.0294C115.544 92.4056 115.647 92.7763 115.735 93.0923C115.828 93.4259 115.902 93.6916 115.946 93.927L117.912 93.5582C117.848 93.2206 117.748 92.865 117.662 92.5556C117.571 92.2287 117.49 91.9346 117.435 91.6505C117.321 91.0584 117.368 90.7355 117.498 90.5337L115.818 89.4497ZM115.946 93.927C116.016 94.2984 116.183 94.6141 116.315 94.8371C116.384 94.9532 116.457 95.0666 116.518 95.1619C116.583 95.2628 116.636 95.3465 116.685 95.4281C116.785 95.5973 116.821 95.6902 116.832 95.7417C116.837 95.7663 116.835 95.7588 116.832 95.7646L118.65 96.5984C119.078 95.6646 118.668 94.8513 118.405 94.4087C118.336 94.2908 118.262 94.1768 118.201 94.0811C118.136 93.98 118.083 93.8979 118.037 93.8189C117.938 93.652 117.915 93.5793 117.912 93.5582L115.946 93.927ZM116.832 95.7646C116.85 95.7263 116.826 95.7919 116.561 95.9873C116.445 96.0726 116.323 96.156 116.171 96.2608C116.028 96.3597 115.864 96.4746 115.707 96.5992C115.417 96.8288 115.009 97.1946 114.815 97.723C114.586 98.3441 114.72 98.9726 115.101 99.5267L116.749 98.3932C116.657 98.2593 116.731 98.306 116.691 98.4141C116.686 98.4296 116.716 98.3511 116.948 98.1677C117.051 98.0858 117.17 98.002 117.309 97.9053C117.44 97.8145 117.601 97.7054 117.748 97.5966C118.01 97.4039 118.431 97.075 118.65 96.5984L116.832 95.7646ZM115.101 99.5267C115.484 100.084 116.123 100.49 116.469 100.732C116.932 101.057 117.069 101.205 117.106 101.292L118.95 100.517C118.653 99.8117 117.993 99.3579 117.616 99.0938C117.121 98.7467 116.876 98.577 116.749 98.3932L115.101 99.5267ZM117.106 101.292C117.131 101.351 117.152 101.49 117.132 101.857C117.117 102.127 117.062 102.654 117.137 103.105L119.11 102.779C119.082 102.612 119.104 102.415 119.129 101.969C119.148 101.619 119.173 101.049 118.95 100.517L117.106 101.292ZM117.137 103.105C117.346 104.371 118.077 105.302 118.56 105.986C119.079 106.721 119.385 107.248 119.385 107.944H121.385C121.385 106.566 120.724 105.584 120.194 104.833C119.628 104.031 119.229 103.499 119.11 102.779L117.137 103.105ZM119.385 107.944C119.385 108.02 119.353 108.192 119.225 108.472C119.102 108.739 118.921 109.04 118.702 109.357C118.262 109.99 117.725 110.601 117.357 111.001L118.826 112.357C119.217 111.934 119.827 111.243 120.345 110.497C120.603 110.124 120.854 109.717 121.042 109.306C121.225 108.909 121.385 108.433 121.385 107.944H119.385ZM117.357 111.001C116.555 111.869 116.655 113.054 116.853 113.856C117.066 114.716 117.486 115.538 117.832 116.06L119.498 114.954C119.25 114.58 118.941 113.967 118.795 113.376C118.634 112.727 118.744 112.446 118.826 112.357L117.357 111.001ZM117.832 116.06C118.078 116.432 118.126 116.618 118.135 116.682C118.137 116.702 118.144 116.707 118.106 116.77C118.037 116.886 117.931 117.003 117.688 117.278C117.471 117.523 117.194 117.847 116.943 118.272L118.666 119.287C118.816 119.034 118.989 118.826 119.187 118.601C119.36 118.406 119.634 118.113 119.823 117.796C120.044 117.427 120.188 116.976 120.119 116.432C120.056 115.933 119.825 115.447 119.498 114.954L117.832 116.06ZM116.943 118.272C116.084 119.729 115.449 120.669 114.171 121.73L115.449 123.269C116.987 121.991 117.761 120.822 118.666 119.287L116.943 118.272ZM114.171 121.73C113.674 122.144 113.571 122.752 113.547 123.129C113.52 123.547 113.571 123.997 113.632 124.387C113.694 124.78 113.78 125.189 113.841 125.501C113.911 125.857 113.938 126.047 113.938 126.127H115.938C115.938 125.816 115.864 125.427 115.804 125.118C115.735 124.764 115.662 124.421 115.608 124.075C115.553 123.726 115.53 123.451 115.542 123.258C115.558 123.025 115.608 123.137 115.449 123.269L114.171 121.73ZM113.938 126.127C113.938 126.697 114.01 127.24 114.077 127.713C114.148 128.208 114.209 128.612 114.225 129.007L116.224 128.927C116.203 128.406 116.121 127.882 116.057 127.432C115.99 126.96 115.938 126.541 115.938 126.127H113.938ZM114.225 129.007C114.232 129.178 114.182 129.335 114.025 129.717C113.883 130.063 113.651 130.602 113.651 131.282H115.651C115.651 131.048 115.722 130.85 115.875 130.476C116.014 130.139 116.25 129.596 116.224 128.927L114.225 129.007ZM113.651 131.282C113.651 133.353 114.26 135.167 115.835 136.693L117.226 135.257C116.103 134.169 115.651 132.906 115.651 131.282H113.651ZM115.835 136.693C115.837 136.696 115.785 136.633 115.782 136.533C115.779 136.473 115.8 136.486 115.736 136.607C115.585 136.898 115.327 137.177 114.932 137.693C114.761 137.917 114.571 138.181 114.421 138.466C114.273 138.748 114.131 139.11 114.12 139.523C114.092 140.5 114.762 141.168 115.648 141.598L116.521 139.798C115.955 139.525 116.124 139.415 116.119 139.579C116.119 139.586 116.12 139.533 116.191 139.397C116.262 139.263 116.37 139.105 116.52 138.909C116.769 138.584 117.252 138.027 117.511 137.53C117.653 137.257 117.796 136.887 117.78 136.461C117.763 135.995 117.562 135.582 117.226 135.257L115.835 136.693ZM115.648 141.598C115.864 141.702 116.991 142.387 118.048 143.143C118.571 143.517 119.031 143.876 119.33 144.16C119.486 144.308 119.554 144.394 119.571 144.42C119.58 144.434 119.543 144.384 119.519 144.282C119.493 144.169 119.472 143.936 119.613 143.689L121.348 144.684C121.532 144.364 121.517 144.042 121.467 143.826C121.419 143.621 121.327 143.454 121.254 143.34C121.106 143.11 120.901 142.893 120.706 142.709C120.305 142.328 119.755 141.905 119.211 141.516C118.132 140.745 116.893 139.979 116.521 139.798L115.648 141.598ZM119.613 143.689C119.701 143.535 119.795 143.508 119.686 143.573C119.608 143.618 119.483 143.678 119.298 143.754C118.903 143.915 118.488 144.051 117.957 144.253C117.489 144.43 116.937 144.656 116.521 144.945C116.313 145.089 116.059 145.302 115.886 145.606C115.689 145.953 115.622 146.383 115.784 146.82L117.659 146.123C117.724 146.297 117.689 146.481 117.625 146.594C117.586 146.663 117.564 146.655 117.661 146.589C117.853 146.455 118.192 146.302 118.665 146.123C119.074 145.968 119.648 145.771 120.055 145.605C120.271 145.517 120.499 145.414 120.7 145.297C120.868 145.198 121.164 145.006 121.348 144.684L119.613 143.689ZM115.784 146.82C116.039 147.506 116.649 147.904 117.072 148.136C117.51 148.376 118.071 148.597 118.414 148.751C118.609 148.838 118.759 148.912 118.871 148.98C118.989 149.052 119.011 149.085 118.998 149.067C118.967 149.029 118.904 148.916 118.916 148.762C118.925 148.636 118.977 148.61 118.904 148.701L120.464 149.953C120.684 149.679 120.878 149.331 120.91 148.916C120.944 148.472 120.783 148.101 120.568 147.828C120.369 147.576 120.117 147.397 119.905 147.269C119.687 147.136 119.449 147.023 119.23 146.925C118.747 146.709 118.378 146.571 118.032 146.382C117.672 146.185 117.645 146.084 117.659 146.123L115.784 146.82ZM118.904 148.701C117.514 150.433 116.473 153.218 115.92 155.149L117.842 155.7C118.381 153.821 119.335 151.36 120.464 149.953L118.904 148.701ZM115.92 155.149C115.723 155.835 115.306 156.346 114.756 157.129C114.242 157.859 113.651 158.797 113.651 160.086H115.651C115.651 159.453 115.919 158.952 116.392 158.278C116.83 157.656 117.528 156.797 117.842 155.7L115.92 155.149ZM113.651 160.086C113.651 160.85 113.89 161.519 114.091 162.041C114.31 162.612 114.474 162.995 114.539 163.407L116.515 163.093C116.407 162.417 116.133 161.782 115.958 161.324C115.764 160.819 115.651 160.45 115.651 160.086H113.651ZM114.539 163.407C114.771 164.863 115.085 165.909 115.085 167.124H117.085C117.085 165.704 116.697 164.242 116.515 163.093L114.539 163.407ZM115.085 167.124C115.085 167.721 114.968 168.247 114.824 168.873C114.684 169.477 114.511 170.196 114.511 171.014H116.511C116.511 170.459 116.625 169.958 116.772 169.323C116.914 168.71 117.085 167.978 117.085 167.124H115.085ZM114.511 171.014C114.511 172.023 114.447 173.193 114.888 174.424L116.771 173.748C116.474 172.922 116.511 172.166 116.511 171.014H114.511ZM114.888 174.424C115.111 175.045 115.606 175.51 115.849 175.757C116 175.91 116.098 176.013 116.169 176.108C116.237 176.197 116.242 176.231 116.241 176.223L118.19 175.776C118.034 175.096 117.521 174.603 117.273 174.353C116.931 174.005 116.814 173.868 116.771 173.748L114.888 174.424ZM116.241 176.223C116.197 176.031 116.296 175.939 116.237 176.019C116.179 176.097 116.054 176.218 115.845 176.367C115.431 176.663 114.927 176.908 114.61 177.07L115.52 178.851C115.778 178.719 116.444 178.398 117.008 177.994C117.289 177.794 117.606 177.531 117.844 177.209C118.08 176.89 118.329 176.383 118.19 175.776L116.241 176.223ZM114.61 177.07C114.19 177.285 113.848 177.591 113.623 177.985C113.398 178.378 113.323 178.801 113.345 179.2C113.387 179.97 113.785 180.683 114.269 181.203L115.734 179.842C115.463 179.551 115.351 179.26 115.342 179.091C115.338 179.02 115.352 178.989 115.36 178.976C115.366 178.965 115.398 178.913 115.52 178.851L114.61 177.07ZM114.269 181.203C114.496 181.448 114.636 181.78 114.832 182.329C115.006 182.815 115.239 183.529 115.719 184.128L117.279 182.876C117.051 182.593 116.922 182.233 116.716 181.657C116.533 181.145 116.279 180.429 115.734 179.842L114.269 181.203ZM115.719 184.128C115.849 184.29 115.919 184.485 115.946 184.79C115.979 185.16 115.945 185.453 115.945 186.002H117.945C117.945 185.682 117.981 185.09 117.938 184.611C117.889 184.065 117.736 183.446 117.279 182.876L115.719 184.128ZM115.945 186.002C115.945 187.11 116.416 187.897 116.959 188.503C117.218 188.793 117.505 189.054 117.753 189.28C118.014 189.518 118.239 189.721 118.442 189.94L119.907 188.579C119.636 188.287 119.345 188.025 119.099 187.801C118.841 187.566 118.63 187.371 118.45 187.17C118.114 186.795 117.945 186.463 117.945 186.002H115.945ZM118.442 189.94C118.339 189.829 118.356 189.768 118.394 189.934C118.424 190.064 118.451 190.258 118.468 190.518C118.501 191.037 118.491 191.702 118.457 192.408C118.424 193.11 118.371 193.822 118.325 194.431C118.281 195.013 118.238 195.556 118.238 195.85H120.238C120.238 195.653 120.271 195.217 120.319 194.582C120.365 193.976 120.421 193.236 120.455 192.502C120.489 191.774 120.504 191.02 120.464 190.389C120.443 190.075 120.407 189.761 120.343 189.483C120.287 189.24 120.176 188.868 119.907 188.579L118.442 189.94ZM118.238 195.85C118.238 196.223 118.134 196.633 117.959 197.15C117.802 197.615 117.555 198.247 117.419 198.838L119.369 199.285C119.474 198.825 119.649 198.397 119.854 197.791C120.041 197.238 120.238 196.568 120.238 195.85H118.238ZM117.419 198.838L117.415 198.858L119.364 199.304L119.369 199.284L117.419 198.838ZM117.415 198.857C117.187 199.852 117.02 200.484 116.515 201.003L117.947 202.398C118.901 201.42 119.153 200.227 119.364 199.304L117.415 198.857ZM116.515 201.003C115.479 202.066 114.733 203.168 114.432 204.451C114.128 205.741 114.305 207.082 114.862 208.566L116.734 207.863C116.268 206.62 116.193 205.697 116.379 204.908C116.566 204.112 117.049 203.32 117.947 202.398L116.515 201.003ZM114.862 208.566C115.227 209.539 115.625 210.404 115.923 211.38C116.212 212.323 116.338 213.178 116.186 213.949L118.149 214.335C118.392 213.096 118.165 211.871 117.836 210.795C117.517 209.752 117.033 208.659 116.734 207.863L114.862 208.566ZM116.186 213.949C116.11 214.336 116.012 214.555 115.877 214.982C115.745 215.399 115.634 215.874 115.659 216.526L117.657 216.45C117.644 216.097 117.697 215.86 117.784 215.586C117.867 215.322 118.044 214.87 118.149 214.335L116.186 213.949ZM115.659 216.526C115.674 216.922 115.792 217.273 115.911 217.549C116.026 217.819 116.175 218.089 116.277 218.281C116.392 218.5 116.462 218.645 116.501 218.763C116.537 218.874 116.518 218.883 116.527 218.842L118.477 219.289C118.577 218.852 118.503 218.452 118.403 218.145C118.305 217.844 118.159 217.562 118.045 217.346C117.917 217.105 117.823 216.935 117.749 216.761C117.677 216.594 117.659 216.5 117.657 216.45L115.659 216.526ZM116.527 218.842C116.353 219.603 116.19 220.135 115.945 220.605C115.705 221.062 115.361 221.507 114.765 222.041L116.098 223.531C116.832 222.875 117.343 222.245 117.716 221.533C118.083 220.832 118.291 220.098 118.477 219.289L116.527 218.842ZM114.765 222.041C114.533 222.248 114.333 222.508 114.224 222.829C114.111 223.159 114.117 223.484 114.194 223.775C114.334 224.304 114.706 224.702 114.978 224.952C115.272 225.223 115.61 225.461 115.858 225.635C115.992 225.729 116.094 225.799 116.18 225.863C116.275 225.933 116.291 225.952 116.276 225.936L117.741 224.575C117.621 224.446 117.475 224.333 117.371 224.256C117.258 224.172 117.124 224.08 117.006 223.997C116.749 223.817 116.515 223.649 116.332 223.48C116.126 223.291 116.115 223.217 116.127 223.262C116.14 223.311 116.145 223.391 116.116 223.476C116.09 223.552 116.058 223.567 116.098 223.531L114.765 222.041ZM116.276 225.936C116.148 225.798 116.09 225.659 116.067 225.591C116.04 225.516 116.028 225.452 116.022 225.415C116.01 225.343 116.009 225.285 116.009 225.264C116.009 225.215 116.013 225.179 116.014 225.174C116.016 225.157 116.017 225.152 116.014 225.171C116.008 225.203 115.998 225.257 115.983 225.337C115.951 225.499 115.909 225.701 115.862 225.939C115.816 226.168 115.768 226.416 115.73 226.633C115.699 226.818 115.658 227.073 115.658 227.262H117.658C117.658 227.273 117.664 227.191 117.702 226.971C117.734 226.782 117.778 226.556 117.823 226.331C117.866 226.115 117.913 225.884 117.945 225.723C117.961 225.641 117.976 225.562 117.987 225.499C117.991 225.47 117.998 225.427 118.003 225.383C118.005 225.364 118.01 225.318 118.009 225.262C118.009 225.236 118.009 225.176 117.997 225.1C117.994 225.085 117.963 224.814 117.741 224.575L116.276 225.936ZM115.658 227.262C115.658 227.788 115.746 228.301 115.814 228.721C115.888 229.167 115.945 229.535 115.945 229.902H117.945C117.945 229.348 117.858 228.825 117.788 228.397C117.714 227.942 117.658 227.596 117.658 227.262H115.658ZM115.945 229.902V237.141H117.945V229.902H115.945ZM115.945 237.141C115.945 238.044 115.904 238.282 115.825 238.457C115.733 238.659 115.551 238.865 114.866 239.554L116.284 240.964C116.867 240.379 117.37 239.891 117.645 239.285C117.934 238.651 117.945 237.968 117.945 237.141H115.945ZM114.866 239.554C114.142 240.281 114.214 241.231 114.372 241.848C114.535 242.487 114.861 243.088 115.074 243.458L116.809 242.463C116.606 242.109 116.401 241.71 116.31 241.354C116.266 241.181 116.263 241.069 116.271 241.008C116.274 240.981 116.279 240.97 116.28 240.969C116.28 240.969 116.28 240.968 116.28 240.968C116.28 240.969 116.28 240.969 116.28 240.969C116.28 240.969 116.28 240.968 116.281 240.968C116.281 240.967 116.282 240.966 116.284 240.964L114.866 239.554ZM115.074 243.458C115.334 243.912 115.394 244.536 115.329 245.398C115.297 245.823 115.24 246.244 115.186 246.708C115.134 247.154 115.085 247.636 115.085 248.101H117.085C117.085 247.762 117.121 247.381 117.173 246.94C117.222 246.518 117.287 246.027 117.323 245.55C117.395 244.608 117.383 243.465 116.809 242.463L115.074 243.458ZM115.085 248.101C115.085 248.585 115.014 248.651 115.002 248.67C114.971 248.714 114.918 248.773 114.783 248.907C114.66 249.028 114.475 249.205 114.269 249.427L115.734 250.788C115.901 250.608 116.038 250.479 116.187 250.331C116.325 250.195 116.497 250.022 116.644 249.811C116.986 249.319 117.085 248.783 117.085 248.101H115.085ZM114.269 249.427C114.058 249.653 113.971 249.918 113.93 250.073C113.882 250.25 113.857 250.435 113.844 250.603C113.817 250.942 113.826 251.323 113.851 251.674C113.876 252.031 113.92 252.387 113.971 252.685C113.996 252.833 114.025 252.977 114.057 253.104C114.084 253.209 114.13 253.377 114.208 253.529L115.986 252.612C116.02 252.678 116.018 252.701 115.997 252.616C115.981 252.553 115.962 252.463 115.942 252.347C115.903 252.117 115.867 251.826 115.846 251.533C115.825 251.234 115.821 250.964 115.837 250.764C115.846 250.664 115.857 250.608 115.862 250.589C115.873 250.546 115.855 250.657 115.734 250.788L114.269 249.427ZM114.208 253.529C114.204 253.52 114.216 253.544 114.239 253.619C114.259 253.688 114.281 253.777 114.304 253.882C114.349 254.094 114.388 254.335 114.422 254.558C114.45 254.754 114.482 254.991 114.501 255.1C114.505 255.125 114.515 255.186 114.532 255.248C114.533 255.25 114.564 255.38 114.646 255.517C114.672 255.559 114.723 255.636 114.805 255.716C114.883 255.792 115.046 255.926 115.299 255.979C115.957 256.116 116.304 255.61 116.361 255.516C116.442 255.382 116.471 255.26 116.478 255.231C116.49 255.182 116.496 255.142 116.499 255.12C116.505 255.075 116.507 255.036 116.508 255.015C116.511 254.969 116.511 254.92 116.511 254.877H114.511C114.511 254.911 114.511 254.919 114.511 254.913C114.511 254.912 114.512 254.889 114.516 254.856C114.519 254.839 114.524 254.804 114.535 254.759C114.541 254.734 114.569 254.614 114.649 254.482C114.705 254.39 115.051 253.884 115.708 254.021C115.96 254.074 116.123 254.208 116.2 254.283C116.281 254.362 116.331 254.438 116.357 254.48C116.407 254.562 116.432 254.633 116.441 254.655C116.452 254.687 116.459 254.712 116.462 254.725C116.473 254.764 116.476 254.788 116.472 254.764C116.458 254.679 116.439 254.53 116.4 254.266C116.365 254.029 116.318 253.738 116.26 253.463C116.207 253.216 116.123 252.879 115.986 252.612L114.208 253.529ZM116.511 254.877C116.511 254.189 116.32 253.567 116.182 253.107C116.027 252.596 115.938 252.283 115.938 251.99H113.938C113.938 252.635 114.135 253.247 114.267 253.685C114.415 254.175 114.511 254.527 114.511 254.877H116.511ZM118.517 60.1871C118.791 58.7464 119.171 57.3364 119.814 56.2447L118.091 55.2299C117.266 56.6297 116.837 58.3203 116.552 59.8129L118.517 60.1871ZM119.814 56.2447C120.093 55.771 120.543 55.0991 120.497 54.0964L118.499 54.1894C118.513 54.5039 118.421 54.6686 118.091 55.2299L119.814 56.2447ZM120.497 54.0964C120.465 53.4204 120.088 52.7474 119.81 52.301C119.655 52.0516 119.49 51.8137 119.348 51.6102C119.197 51.3957 119.084 51.2376 119 51.1076L117.324 52.1995C117.433 52.367 117.579 52.5717 117.71 52.7582C117.849 52.9559 117.987 53.1575 118.113 53.3589C118.397 53.8142 118.494 54.0885 118.499 54.1894L120.497 54.0964ZM119 51.1076C118.738 50.7057 118.455 50.3753 118.189 50.0828C117.91 49.7743 117.685 49.5439 117.442 49.2542L115.909 50.5387C116.184 50.8667 116.483 51.1786 116.708 51.426C116.946 51.6895 117.147 51.9288 117.324 52.1995L119 51.1076ZM117.442 49.2542C117.19 48.9524 116.852 48.7037 116.614 48.531C116.332 48.3264 116.144 48.1953 116 48.0611C115.844 47.9148 115.931 47.9331 115.946 48.0941C115.968 48.3203 115.823 48.3714 115.997 48.214L114.656 46.7305C114.243 47.1036 113.892 47.6262 113.955 48.2853C114.012 48.8792 114.388 49.292 114.635 49.5223C114.894 49.7646 115.223 49.9922 115.438 50.1489C115.698 50.3376 115.838 50.453 115.909 50.5387L117.442 49.2542ZM115.997 48.214C116.126 48.0976 116.387 47.8766 116.559 47.7105C116.753 47.5241 116.995 47.2638 117.158 46.9257C117.337 46.5557 117.405 46.1252 117.292 45.6598C117.186 45.2262 116.94 44.8343 116.626 44.473L115.117 45.7858C115.313 46.0109 115.346 46.1218 115.349 46.1334C115.349 46.1342 115.346 46.1182 115.349 46.0925C115.352 46.0678 115.358 46.0541 115.357 46.0561C115.349 46.0739 115.309 46.1378 115.172 46.2698C115.108 46.332 115.034 46.3978 114.944 46.476C114.86 46.5497 114.756 46.6401 114.656 46.7305L115.997 48.214ZM116.626 44.473C116.112 43.8825 115.483 43.536 115.197 43.3361C114.906 43.1339 114.706 42.9499 114.546 42.5189L112.672 43.2168C113.015 44.1398 113.541 44.6203 114.053 44.9771C114.569 45.3363 114.819 45.4435 115.117 45.7858L116.626 44.473ZM114.546 42.5189C114.501 42.3982 114.499 42.3352 114.5 42.3161C114.501 42.3023 114.502 42.2998 114.506 42.2937C114.524 42.2604 114.607 42.1592 114.878 42.0136C115.143 41.8713 115.458 41.7521 115.843 41.6035C116.181 41.4728 116.63 41.2998 116.983 41.0656L115.878 39.3987C115.74 39.4902 115.508 39.5889 115.122 39.7378C114.783 39.8687 114.332 40.0368 113.932 40.2515C113.538 40.4629 113.058 40.7882 112.763 41.3127C112.436 41.8933 112.424 42.5524 112.672 43.2168L114.546 42.5189ZM116.983 41.0656C117.507 40.7184 117.983 40.0523 118.205 39.3826C118.429 38.7064 118.498 37.5984 117.498 36.9167L116.371 38.569C116.38 38.5747 116.37 38.5699 116.359 38.5515C116.347 38.5339 116.345 38.5212 116.345 38.5229C116.348 38.5361 116.354 38.6108 116.307 38.7539C116.261 38.891 116.183 39.0404 116.087 39.1726C115.986 39.3115 115.903 39.382 115.878 39.3987L116.983 41.0656ZM117.498 36.9167C117.67 37.034 117.664 37.156 117.618 36.9948C117.583 36.8702 117.554 36.684 117.53 36.4271C117.518 36.3036 117.509 36.1763 117.498 36.0415C117.489 35.9103 117.478 35.7693 117.465 35.6345C117.443 35.3916 117.405 35.0581 117.305 34.7745L115.419 35.4398C115.419 35.4384 115.428 35.4672 115.441 35.5436C115.453 35.6159 115.463 35.7069 115.474 35.8204C115.485 35.9338 115.494 36.0553 115.504 36.1919C115.514 36.3249 115.525 36.4706 115.539 36.6162C115.566 36.8973 115.607 37.233 115.694 37.5401C115.771 37.8107 115.939 38.2744 116.371 38.569L117.498 36.9167ZM117.305 34.7745C117.154 34.3459 117.055 33.2772 117.136 32.1636C117.174 31.627 117.25 31.143 117.356 30.7794C117.408 30.5979 117.461 30.4716 117.504 30.3926C117.552 30.3064 117.56 30.3267 117.498 30.369L116.371 28.7167C116.079 28.916 115.884 29.1888 115.752 29.4293C115.615 29.677 115.513 29.9515 115.435 30.2234C115.277 30.7668 115.185 31.4004 115.141 32.0202C115.054 33.2195 115.13 34.6191 115.419 35.4398L117.305 34.7745ZM117.498 30.369C117.694 30.2354 117.86 30.1501 118.075 30.0313C118.257 29.9306 118.553 29.7657 118.793 29.4989C119.38 28.8459 119.316 27.9995 119.125 27.1311L117.172 27.5617C117.257 27.9504 117.265 28.143 117.258 28.2277C117.254 28.2737 117.255 28.2186 117.305 28.1624C117.317 28.149 117.302 28.1732 117.106 28.2817C116.942 28.3722 116.665 28.5162 116.371 28.7167L117.498 30.369ZM119.125 27.1311C118.91 26.1557 118.78 25.24 118.78 24.2714H116.78C116.78 25.4256 116.935 26.4912 117.172 27.5617L119.125 27.1311ZM118.78 24.2714C118.78 24.0588 118.768 23.834 118.762 23.6684C118.755 23.4858 118.754 23.3467 118.762 23.227C118.779 22.9954 118.826 22.9569 118.839 22.9447L117.458 21.4982C116.939 21.9934 116.802 22.6045 116.767 23.0833C116.75 23.3188 116.756 23.5501 116.763 23.743C116.771 23.9529 116.78 24.1086 116.78 24.2714H118.78ZM118.839 22.9447C119.061 22.7322 119.168 22.4779 119.224 22.3069C119.285 22.1226 119.318 21.9322 119.338 21.7615C119.378 21.42 119.378 21.0357 119.366 20.6853C119.355 20.3289 119.329 19.9669 119.308 19.6666C119.286 19.3456 119.271 19.1275 119.271 19H117.271C117.271 19.216 117.293 19.5221 117.313 19.8069C117.335 20.1124 117.357 20.4376 117.367 20.7505C117.378 21.0695 117.374 21.3367 117.351 21.5295C117.34 21.6259 117.327 21.6733 117.323 21.6852C117.315 21.7103 117.34 21.6103 117.458 21.4982L118.839 22.9447ZM18.4295 59.4024C17.9321 60.0698 17.4803 60.7998 17.0709 61.4116C16.6444 62.0491 16.2264 62.6197 15.7239 63.118L17.1321 64.5381C17.7781 63.8976 18.284 63.1951 18.7332 62.5238C19.1995 61.8268 19.5751 61.2122 20.0331 60.5976L18.4295 59.4024ZM15.7239 63.118C15.5441 63.2962 15.0946 63.6896 14.8268 64.1165C14.6742 64.3598 14.5363 64.6711 14.5061 65.0447C14.4751 65.4274 14.5632 65.8003 14.7483 66.1491L16.5149 65.2116C16.4871 65.1592 16.5029 65.1649 16.4996 65.2061C16.497 65.2383 16.4867 65.234 16.521 65.1794C16.5585 65.1196 16.6242 65.0388 16.7375 64.9231C16.7924 64.867 16.8517 64.8095 16.9193 64.7445C16.9836 64.6826 17.0597 64.61 17.1321 64.5381L15.7239 63.118ZM14.7483 66.1491C15.1053 66.8218 15.6063 67.4887 16.0774 68.0896C16.5703 68.7184 17.0237 69.2677 17.388 69.7974L19.0358 68.6638C18.6244 68.0658 18.099 67.4267 17.6514 66.8557C17.182 66.2569 16.7807 65.7124 16.5149 65.2116L14.7483 66.1491ZM17.388 69.7974C17.5415 70.0204 17.7341 70.2539 17.8848 70.4412C18.0494 70.6456 18.1887 70.8241 18.3007 70.9984C18.5372 71.366 18.5228 71.515 18.5012 71.5829L20.4074 72.1882C20.7041 71.2538 20.321 70.4423 19.9829 69.9166C19.8077 69.6441 19.6083 69.3927 19.4428 69.1871C19.2636 68.9645 19.1349 68.8079 19.0358 68.6638L17.388 69.7974ZM18.5012 71.5829C18.2528 72.3652 18.1948 73.1652 18.1898 73.8987C18.1873 74.2669 18.1983 74.6336 18.2093 74.9786C18.2204 75.3299 18.2313 75.657 18.2313 75.976H20.2313C20.2313 75.6187 20.2191 75.2569 20.2083 74.9153C20.1973 74.5674 20.1875 74.2369 20.1898 73.9123C20.1942 73.2601 20.2477 72.6912 20.4074 72.1882L18.5012 71.5829ZM18.2313 75.976C18.2313 76.6934 18.0926 77.803 17.9458 78.5855L19.9115 78.9543C20.0697 78.1111 20.2313 76.8666 20.2313 75.976H18.2313ZM17.9458 78.5855C17.931 78.6648 17.905 78.6942 17.7185 79.02C17.5562 79.3034 17.3119 79.7789 17.3954 80.426L19.3789 80.1701C19.3783 80.1654 19.3778 80.1699 19.3794 80.1648C19.3847 80.1473 19.3998 80.1088 19.4542 80.0136C19.5314 79.8788 19.8169 79.459 19.9115 78.9543L17.9458 78.5855ZM17.3954 80.426C17.4329 80.7172 17.4938 80.9605 17.5328 81.1226C17.5536 81.2093 17.5662 81.2639 17.5745 81.3095C17.5825 81.3526 17.5825 81.3667 17.5825 81.3639C17.5819 81.332 17.5946 81.278 17.6136 81.2463C17.6165 81.2416 17.5793 81.3037 17.4058 81.439L18.6358 83.016C18.9076 82.8041 19.1536 82.566 19.3272 82.2777C19.5169 81.9625 19.5877 81.6415 19.5821 81.3287C19.5774 81.0602 19.5135 80.8056 19.4773 80.6551C19.4348 80.478 19.4005 80.3376 19.3789 80.1701L17.3954 80.426ZM17.4058 81.439C17.3479 81.4842 17.2637 81.5329 17.0897 81.6295C16.954 81.7048 16.7134 81.8353 16.5104 82.0055C16.2971 82.1843 16.0002 82.5092 15.9472 83.0097C15.8957 83.4969 16.1015 83.9084 16.3239 84.2101L17.9338 83.0234C17.857 82.9192 17.9589 83.0055 17.9361 83.2203C17.912 83.4485 17.7767 83.5538 17.7954 83.5381C17.8243 83.5139 17.886 83.4749 18.0604 83.3781C18.1965 83.3026 18.4303 83.1763 18.6358 83.016L17.4058 81.439ZM16.3239 84.2101C16.4704 84.4089 16.6166 84.5718 16.7309 84.6976C16.8557 84.835 16.9248 84.9098 16.9832 84.9863C17.0328 85.0513 17.0515 85.0891 17.0615 85.1161C17.0707 85.1409 17.0845 85.1889 17.0845 85.2838H19.0845C19.0845 84.6222 18.8627 84.1525 18.573 83.7728C18.4495 83.6111 18.3083 83.4596 18.2111 83.3526C18.1033 83.2341 18.0158 83.1346 17.9338 83.0234L16.3239 84.2101ZM17.0845 85.2838C17.0845 85.8063 17.2122 86.3136 17.3447 86.7433C17.4122 86.9626 17.4875 87.1813 17.5572 87.3835C17.6287 87.5911 17.6946 87.7819 17.7533 87.9698C18.0052 88.7757 17.9977 89.1703 17.8175 89.4497L19.4983 90.5337C20.2157 89.4213 19.9216 88.2029 19.6623 87.3733C19.5933 87.1524 19.5173 86.9329 19.448 86.7318C19.3769 86.5255 19.3123 86.3373 19.256 86.1545C19.1406 85.78 19.0845 85.5023 19.0845 85.2838H17.0845ZM17.8175 89.4497C17.2553 90.3216 17.3306 91.301 17.4711 92.0294C17.5437 92.4056 17.6469 92.7763 17.735 93.0923C17.8279 93.4259 17.9017 93.6916 17.9458 93.927L19.9115 93.5582C19.8482 93.2206 19.7478 92.865 19.6616 92.5556C19.5705 92.2287 19.4897 91.9346 19.4349 91.6505C19.3207 91.0584 19.3682 90.7355 19.4983 90.5337L17.8175 89.4497ZM17.9458 93.927C18.0155 94.2984 18.1832 94.6141 18.3152 94.8371C18.3838 94.9532 18.4568 95.0666 18.518 95.1619C18.5828 95.2628 18.6364 95.3465 18.6847 95.4281C18.785 95.5973 18.8206 95.6902 18.8317 95.7417C18.837 95.7663 18.8347 95.7588 18.832 95.7646L20.65 96.5984C21.0782 95.6646 20.6677 94.8513 20.4054 94.4087C20.3356 94.2908 20.2622 94.1768 20.2008 94.0811C20.1358 93.98 20.0833 93.8979 20.0366 93.8189C19.9378 93.652 19.9155 93.5793 19.9115 93.5582L17.9458 93.927ZM18.832 95.7646C18.8496 95.7263 18.8257 95.7919 18.5609 95.9873C18.4452 96.0726 18.3225 96.156 18.1711 96.2608C18.0282 96.3597 17.8644 96.4746 17.7069 96.5992C17.4167 96.8288 17.0092 97.1946 16.8146 97.723C16.5859 98.3441 16.7201 98.9726 17.1013 99.5267L18.7491 98.3932C18.657 98.2593 18.7313 98.306 18.6915 98.4141C18.6858 98.4296 18.7161 98.3511 18.9478 98.1677C19.0513 98.0858 19.1696 98.002 19.3093 97.9053C19.4405 97.8145 19.6009 97.7054 19.7483 97.5966C20.0095 97.4039 20.4314 97.075 20.65 96.5984L18.832 95.7646ZM17.1013 99.5267C17.4845 100.084 18.1235 100.49 18.4686 100.732C18.9323 101.057 19.0691 101.205 19.1059 101.292L20.9496 100.517C20.6529 99.8117 19.9932 99.3579 19.6164 99.0938C19.1211 98.7467 18.8755 98.577 18.7491 98.3932L17.1013 99.5267ZM19.1059 101.292C19.1305 101.351 19.1523 101.49 19.1318 101.858C19.1168 102.127 19.0622 102.654 19.1366 103.105L21.1099 102.779C21.0822 102.612 21.1039 102.415 21.1288 101.969C21.1482 101.619 21.1732 101.049 20.9496 100.517L19.1059 101.292ZM19.1366 103.105C19.3456 104.371 20.0773 105.302 20.5601 105.986C21.0787 106.721 21.3851 107.248 21.3851 107.944H23.3851C23.3851 106.566 22.7244 105.584 22.194 104.833C21.6279 104.031 21.2287 103.499 21.1099 102.779L19.1366 103.105ZM21.3851 107.944C21.3851 108.02 21.3534 108.192 21.2248 108.472C21.1021 108.739 20.9213 109.04 20.7016 109.357C20.2623 109.99 19.7252 110.601 19.3567 111.001L20.8262 112.357C21.2175 111.934 21.8272 111.243 22.3448 110.497C22.6035 110.124 22.8537 109.717 23.0423 109.306C23.225 108.909 23.3851 108.433 23.3851 107.944H21.3851ZM19.3567 111.001C18.555 111.869 18.6547 113.054 18.8531 113.856C19.0659 114.716 19.4856 115.538 19.8315 116.06L21.4982 114.954C21.2497 114.58 20.9408 113.967 20.7946 113.376C20.6341 112.727 20.7443 112.446 20.8262 112.357L19.3567 111.001ZM19.8315 116.06C20.0785 116.432 20.1265 116.618 20.1346 116.682C20.137 116.702 20.1439 116.707 20.1062 116.77C20.0373 116.886 19.9307 117.003 19.688 117.278C19.4712 117.523 19.1935 117.847 18.9433 118.272L20.6661 119.287C20.8156 119.034 20.9886 118.826 21.1873 118.601C21.36 118.406 21.6335 118.113 21.823 117.796C22.0439 117.427 22.1875 116.976 22.1189 116.432C22.0558 115.933 21.8247 115.447 21.4982 114.954L19.8315 116.06ZM18.9433 118.272C18.0837 119.729 17.4487 120.669 16.1713 121.73L17.4492 123.269C18.9871 121.991 19.7611 120.822 20.6661 119.287L18.9433 118.272ZM16.1713 121.73C15.6736 122.144 15.571 122.752 15.5466 123.129C15.5195 123.547 15.5708 123.997 15.6323 124.387C15.6942 124.78 15.7803 125.189 15.841 125.501C15.9105 125.857 15.9377 126.047 15.9377 126.127H17.9377C17.9377 125.816 17.8643 125.427 17.8041 125.118C17.7352 124.764 17.6624 124.421 17.6078 124.075C17.5528 123.726 17.5299 123.451 17.5424 123.258C17.5576 123.025 17.6084 123.137 17.4492 123.269L16.1713 121.73ZM15.9377 126.127C15.9377 126.697 16.0101 127.24 16.0773 127.713C16.1476 128.208 16.2095 128.612 16.2252 129.007L18.2236 128.927C18.2029 128.406 18.1214 127.882 18.0575 127.432C17.9904 126.96 17.9377 126.541 17.9377 126.127H15.9377ZM16.2252 129.007C16.232 129.178 16.1818 129.335 16.025 129.717C15.8832 130.063 15.651 130.602 15.651 131.282H17.651C17.651 131.048 17.7221 130.85 17.8753 130.476C18.0136 130.139 18.2501 129.596 18.2236 128.927L16.2252 129.007ZM15.651 131.282C15.651 133.353 16.2599 135.167 17.8346 136.693L19.2264 135.257C18.1035 134.169 17.651 132.906 17.651 131.282H15.651ZM17.8346 136.693C17.8372 136.696 17.7851 136.633 17.7815 136.533C17.7794 136.473 17.7996 136.486 17.7364 136.607C17.5847 136.898 17.3274 137.177 16.932 137.693C16.7607 137.917 16.571 138.181 16.4212 138.466C16.2726 138.748 16.1314 139.11 16.1198 139.523C16.0923 140.5 16.7615 141.168 17.6484 141.598L18.5206 139.798C17.9554 139.525 18.1236 139.415 18.119 139.579C18.1188 139.586 18.1199 139.533 18.1914 139.397C18.2616 139.263 18.3696 139.105 18.5201 138.909C18.7685 138.584 19.2518 138.027 19.5106 137.53C19.6526 137.257 19.7956 136.887 19.7802 136.461C19.7634 135.995 19.5622 135.582 19.2264 135.257L17.8346 136.693ZM17.6484 141.598C17.8636 141.702 18.9908 142.387 20.0476 143.143C20.5705 143.517 21.0307 143.876 21.3302 144.16C21.4862 144.308 21.5538 144.394 21.5707 144.42C21.5797 144.434 21.5433 144.384 21.5194 144.282C21.4931 144.169 21.4716 143.936 21.6131 143.689L23.3482 144.684C23.5317 144.364 23.5172 144.042 23.4669 143.826C23.4189 143.621 23.3273 143.454 23.254 143.34C23.1064 143.11 22.9008 142.893 22.7063 142.709C22.3051 142.328 21.7554 141.905 21.2108 141.516C20.1325 140.745 18.8935 139.979 18.5206 139.798L17.6484 141.598ZM21.6131 143.689C21.7014 143.535 21.7954 143.508 21.6858 143.573C21.6082 143.618 21.4827 143.678 21.2981 143.754C20.9034 143.915 20.4879 144.051 19.9566 144.253C19.4893 144.43 18.9371 144.656 18.521 144.945C18.3132 145.089 18.0585 145.302 17.886 145.606C17.6894 145.953 17.6222 146.383 17.7842 146.82L19.659 146.123C19.7238 146.297 19.6891 146.481 19.6254 146.594C19.5857 146.663 19.5642 146.655 19.6605 146.589C19.8526 146.455 20.1924 146.302 20.6654 146.123C21.0745 145.968 21.6476 145.771 22.0546 145.605C22.2709 145.517 22.4994 145.414 22.6997 145.297C22.8681 145.198 23.1638 145.006 23.3482 144.684L21.6131 143.689ZM17.7842 146.82C18.0394 147.506 18.6489 147.904 19.0718 148.136C19.5097 148.376 20.0706 148.597 20.4141 148.751C20.6092 148.838 20.7585 148.912 20.8706 148.98C20.9894 149.052 21.0113 149.085 20.9976 149.067C20.9675 149.029 20.9037 148.916 20.9156 148.762C20.9254 148.636 20.9772 148.61 20.9043 148.701L22.4641 149.953C22.6838 149.679 22.8775 149.331 22.9097 148.916C22.944 148.472 22.7832 148.101 22.5678 147.828C22.3688 147.576 22.1171 147.397 21.9054 147.269C21.6869 147.136 21.4487 147.023 21.2305 146.925C20.7471 146.709 20.3781 146.571 20.0325 146.382C19.672 146.185 19.6445 146.084 19.659 146.123L17.7842 146.82ZM20.9043 148.701C19.5143 150.433 18.473 153.218 17.9196 155.149L19.8422 155.7C20.3806 153.821 21.3349 151.36 22.4641 149.953L20.9043 148.701ZM17.9196 155.149C17.7228 155.835 17.3059 156.346 16.756 157.129C16.2424 157.859 15.651 158.797 15.651 160.086H17.651C17.651 159.453 17.9188 158.952 18.3924 158.278C18.8297 157.656 19.5277 156.797 19.8422 155.7L17.9196 155.149ZM15.651 160.086C15.651 160.85 15.8901 161.519 16.0907 162.041C16.31 162.612 16.4739 162.995 16.5394 163.407L18.5147 163.093C18.4074 162.417 18.1333 161.782 17.9578 161.324C17.7635 160.819 17.651 160.45 17.651 160.086H15.651ZM16.5394 163.407C16.7706 164.863 17.0845 165.909 17.0845 167.124H19.0845C19.0845 165.704 18.6971 164.242 18.5147 163.093L16.5394 163.407ZM17.0845 167.124C17.0845 167.721 16.9682 168.247 16.8235 168.873C16.6837 169.477 16.5111 170.196 16.5111 171.014H18.5111C18.5111 170.459 18.6252 169.958 18.7721 169.323C18.9141 168.71 19.0845 167.978 19.0845 167.124H17.0845ZM16.5111 171.014C16.5111 172.023 16.4468 173.193 16.8884 174.424L18.7709 173.748C18.4742 172.922 18.5111 172.166 18.5111 171.014H16.5111ZM16.8884 174.424C17.1114 175.045 17.6058 175.51 17.8491 175.757C17.9999 175.91 18.0979 176.013 18.1692 176.108C18.2369 176.197 18.2424 176.231 18.2407 176.223L20.1901 175.776C20.034 175.096 19.5208 174.603 19.2734 174.353C18.931 174.005 18.814 173.868 18.7709 173.748L16.8884 174.424ZM18.2407 176.223C18.1965 176.031 18.2958 175.939 18.2366 176.019C18.1788 176.097 18.054 176.218 17.8453 176.367C17.4307 176.663 16.9265 176.908 16.6097 177.07L17.5205 178.851C17.7778 178.719 18.4437 178.398 19.0082 177.994C19.2891 177.794 19.6061 177.531 19.844 177.209C20.0804 176.89 20.3292 176.383 20.1901 175.776L18.2407 176.223ZM16.6097 177.07C16.1897 177.285 15.8475 177.591 15.6226 177.985C15.3984 178.378 15.3231 178.801 15.3449 179.2C15.3868 179.97 15.7855 180.683 16.2687 181.203L17.7341 179.842C17.4635 179.551 17.3511 179.26 17.3419 179.091C17.338 179.02 17.3521 178.989 17.3596 178.976C17.3661 178.965 17.3976 178.913 17.5205 178.851L16.6097 177.07ZM16.2687 181.203C16.4957 181.448 16.6364 181.78 16.8323 182.329C17.0056 182.815 17.2385 183.529 17.7187 184.128L19.2785 182.876C19.0513 182.593 18.9216 182.233 18.716 181.657C18.5331 181.145 18.2789 180.429 17.7341 179.842L16.2687 181.203ZM17.7187 184.128C17.849 184.29 17.9187 184.485 17.9459 184.79C17.9791 185.16 17.9446 185.453 17.9446 186.002H19.9446C19.9446 185.682 19.9809 185.09 19.938 184.611C19.8891 184.065 19.7358 183.446 19.2785 182.876L17.7187 184.128ZM17.9446 186.002C17.9446 187.11 18.4165 187.897 18.9591 188.503C19.2181 188.793 19.5048 189.054 19.7534 189.28C20.0144 189.518 20.239 189.721 20.4418 189.94L21.9073 188.579C21.6364 188.287 21.3454 188.025 21.0994 187.801C20.8412 187.566 20.6296 187.371 20.4495 187.17C20.114 186.795 19.9446 186.463 19.9446 186.002H17.9446ZM20.4418 189.94C20.3394 189.829 20.3559 189.768 20.3944 189.934C20.4245 190.064 20.4508 190.258 20.4677 190.518C20.5013 191.037 20.4906 191.702 20.4574 192.408C20.4245 193.11 20.371 193.822 20.3249 194.431C20.2808 195.013 20.2382 195.556 20.2382 195.85H22.2382C22.2382 195.653 22.271 195.217 22.3191 194.582C22.3651 193.976 22.4207 193.236 22.4552 192.502C22.4894 191.774 22.5044 191.02 22.4635 190.389C22.4432 190.075 22.4073 189.761 22.3428 189.483C22.2867 189.24 22.1763 188.868 21.9073 188.579L20.4418 189.94ZM20.2382 195.85C20.2382 196.223 20.134 196.633 19.9592 197.15C19.8022 197.615 19.5548 198.247 19.4194 198.838L21.3688 199.285C21.4742 198.825 21.649 198.397 21.8538 197.791C22.0409 197.238 22.2382 196.568 22.2382 195.85H20.2382ZM19.4193 198.838L19.4148 198.857L21.3643 199.304L21.3688 199.284L19.4193 198.838ZM19.4149 198.857C19.1867 199.852 19.0201 200.484 18.5152 201.003L19.9475 202.398C20.9007 201.42 21.1526 200.227 21.3643 199.304L19.4149 198.857ZM18.5152 201.003C17.4785 202.066 16.7332 203.168 16.4317 204.451C16.1283 205.741 16.3049 207.082 16.8615 208.566L18.7341 207.863C18.2675 206.62 18.1933 205.697 18.3786 204.908C18.5659 204.112 19.049 203.32 19.9475 202.398L18.5152 201.003ZM16.8615 208.566C17.2266 209.539 17.6248 210.404 17.9235 211.38C18.212 212.323 18.3379 213.178 18.1864 213.949L20.1488 214.335C20.3924 213.096 20.1652 211.871 19.836 210.795C19.5169 209.752 19.0327 208.659 18.7341 207.863L16.8615 208.566ZM18.1864 213.949C18.1102 214.336 18.0124 214.555 17.8771 214.982C17.7448 215.399 17.6337 215.874 17.6586 216.526L19.6572 216.45C19.6437 216.097 19.6968 215.86 19.7836 215.586C19.8675 215.322 20.0437 214.87 20.1488 214.335L18.1864 213.949ZM17.6586 216.526C17.6738 216.922 17.7924 217.273 17.9106 217.549C18.0262 217.819 18.1751 218.089 18.2769 218.281C18.3925 218.5 18.4623 218.645 18.5006 218.763C18.5366 218.874 18.518 218.883 18.5274 218.842L20.4768 219.289C20.5771 218.852 20.5026 218.452 20.4027 218.145C20.3051 217.844 20.1589 217.562 20.0449 217.346C19.9172 217.105 19.8231 216.935 19.7489 216.761C19.6773 216.594 19.6591 216.5 19.6572 216.45L17.6586 216.526ZM18.5274 218.842C18.3528 219.603 18.1903 220.135 17.9446 220.605C17.7051 221.062 17.3606 221.507 16.7647 222.041L18.0982 223.531C18.832 222.875 19.3428 222.245 19.7162 221.533C20.0834 220.832 20.2913 220.098 20.4768 219.289L18.5274 218.842ZM16.7647 222.041C16.5329 222.248 16.3332 222.508 16.2236 222.829C16.1111 223.159 16.1167 223.484 16.1936 223.775C16.3338 224.304 16.7061 224.702 16.9779 224.952C17.2722 225.223 17.6103 225.461 17.8585 225.635C17.9922 225.729 18.0945 225.799 18.1798 225.863C18.2747 225.933 18.2908 225.952 18.2756 225.936L19.7411 224.575C19.6209 224.446 19.4751 224.333 19.3713 224.256C19.2577 224.172 19.1243 224.08 19.0056 223.997C18.749 223.817 18.5152 223.649 18.3319 223.48C18.1261 223.291 18.1149 223.217 18.1269 223.262C18.1398 223.311 18.145 223.391 18.1163 223.476C18.0903 223.552 18.0582 223.567 18.0982 223.531L16.7647 222.041ZM18.2756 225.936C18.1476 225.798 18.0904 225.659 18.0666 225.591C18.0397 225.516 18.0275 225.452 18.0217 225.415C18.0101 225.343 18.0095 225.285 18.0095 225.264C18.0094 225.215 18.0133 225.179 18.0139 225.174C18.0157 225.157 18.0169 225.152 18.0138 225.171C18.0085 225.203 17.9982 225.257 17.9826 225.337C17.9508 225.499 17.9091 225.701 17.8616 225.939C17.816 226.168 17.7676 226.416 17.7304 226.633C17.6987 226.818 17.6579 227.073 17.6579 227.262H19.6579C19.6579 227.273 19.6639 227.191 19.7017 226.971C19.734 226.782 19.7779 226.556 19.8229 226.331C19.866 226.115 19.9134 225.884 19.9451 225.723C19.9611 225.641 19.9762 225.562 19.9867 225.499C19.9915 225.47 19.9983 225.427 20.0029 225.383C20.0049 225.364 20.0095 225.318 20.0095 225.262C20.0094 225.236 20.0087 225.176 19.9967 225.1C19.9943 225.085 19.9626 224.814 19.7411 224.575L18.2756 225.936ZM17.6579 227.262C17.6579 227.788 17.7456 228.301 17.8144 228.721C17.8876 229.167 17.9446 229.535 17.9446 229.902H19.9446C19.9446 229.348 19.8582 228.825 19.7881 228.397C19.7135 227.942 19.6579 227.596 19.6579 227.262H17.6579ZM17.9446 229.902V237.141H19.9446V229.902H17.9446ZM17.9446 237.141C17.9446 238.044 17.9044 238.282 17.8251 238.457C17.7329 238.659 17.5511 238.865 16.8659 239.554L18.2837 240.964C18.8665 240.379 19.3696 239.891 19.6453 239.285C19.9339 238.651 19.9446 237.968 19.9446 237.141H17.9446ZM16.8659 239.554C16.1421 240.281 16.2144 241.231 16.372 241.848C16.5349 242.487 16.8615 243.088 17.0736 243.458L18.8087 242.463C18.6059 242.109 18.4007 241.71 18.3099 241.354C18.2657 241.181 18.2625 241.069 18.2707 241.008C18.2743 240.981 18.2793 240.97 18.2797 240.969C18.28 240.969 18.2801 240.968 18.2801 240.968C18.28 240.969 18.28 240.969 18.28 240.969C18.28 240.969 18.2802 240.968 18.2807 240.968C18.2812 240.967 18.2821 240.966 18.2837 240.964L16.8659 239.554ZM17.0736 243.458C17.3338 243.912 17.3943 244.536 17.3288 245.398C17.2965 245.823 17.2405 246.244 17.1863 246.708C17.1342 247.154 17.0845 247.636 17.0845 248.101H19.0845C19.0845 247.762 19.1213 247.381 19.1728 246.94C19.2221 246.518 19.2867 246.027 19.323 245.55C19.3946 244.608 19.3833 243.465 18.8087 242.463L17.0736 243.458ZM17.0845 248.101C17.0845 248.585 17.0143 248.651 17.0016 248.67C16.9708 248.714 16.9185 248.773 16.7832 248.907C16.6601 249.028 16.4747 249.205 16.2686 249.427L17.7342 250.788C17.901 250.608 18.0375 250.479 18.1874 250.331C18.3251 250.195 18.497 250.022 18.6437 249.811C18.986 249.319 19.0845 248.783 19.0845 248.101H17.0845ZM16.2687 249.427C16.0585 249.653 15.9709 249.918 15.9296 250.073C15.8821 250.25 15.8575 250.435 15.8439 250.603C15.8166 250.942 15.8259 251.323 15.851 251.674C15.8763 252.031 15.9199 252.387 15.9709 252.685C15.9964 252.833 16.0253 252.977 16.0572 253.104C16.0835 253.209 16.1296 253.377 16.2083 253.529L17.9857 252.612C18.0197 252.678 18.0182 252.701 17.9968 252.616C17.981 252.553 17.962 252.463 17.9422 252.347C17.9028 252.117 17.8668 251.826 17.8459 251.533C17.8247 251.234 17.8213 250.964 17.8374 250.764C17.8455 250.664 17.8566 250.608 17.8618 250.589C17.8731 250.546 17.8551 250.657 17.7341 250.788L16.2687 249.427ZM16.2083 253.529C16.2035 253.52 16.2159 253.544 16.2385 253.619C16.2592 253.688 16.2813 253.777 16.3039 253.882C16.3493 254.094 16.3885 254.335 16.4215 254.558C16.4504 254.754 16.482 254.991 16.5006 255.1C16.5049 255.125 16.5152 255.186 16.5321 255.248C16.5325 255.25 16.5637 255.38 16.6464 255.517C16.6722 255.559 16.7228 255.636 16.8049 255.716C16.8828 255.792 17.0463 255.926 17.2989 255.979C17.9569 256.116 18.3041 255.61 18.3607 255.516C18.4421 255.382 18.4711 255.26 18.4782 255.231C18.49 255.182 18.4959 255.142 18.4989 255.12C18.5049 255.075 18.5072 255.036 18.5083 255.015C18.5106 254.969 18.5111 254.92 18.5111 254.877H16.5111C16.5111 254.911 16.5106 254.919 16.5109 254.913C16.5109 254.912 16.512 254.889 16.5164 254.856C16.5186 254.839 16.5237 254.804 16.5346 254.759C16.5408 254.734 16.5689 254.614 16.6492 254.482C16.7048 254.39 17.051 253.884 17.7077 254.021C17.9598 254.074 18.1227 254.208 18.2 254.283C18.2815 254.362 18.3315 254.438 18.3566 254.48C18.4066 254.562 18.4324 254.633 18.4406 254.655C18.4519 254.687 18.4589 254.712 18.4624 254.725C18.4731 254.764 18.4762 254.788 18.4722 254.764C18.4576 254.679 18.4391 254.53 18.4 254.266C18.3651 254.029 18.3185 253.738 18.2595 253.463C18.2066 253.216 18.1235 252.879 17.9857 252.612L16.2083 253.529ZM18.5111 254.877C18.5111 254.189 18.3205 253.567 18.1817 253.107C18.0273 252.596 17.9377 252.283 17.9377 251.99H15.9377C15.9377 252.635 16.1348 253.247 16.2671 253.685C16.415 254.175 16.5111 254.527 16.5111 254.877H18.5111ZM19.517 60.1871C19.7913 58.7464 20.1713 57.3364 20.8141 56.2447L19.0906 55.2299C18.2665 56.6297 17.8365 58.3203 17.5523 59.8129L19.517 60.1871ZM20.8141 56.2447C21.093 55.771 21.5432 55.0991 21.4965 54.0964L19.4987 54.1894C19.5134 54.5039 19.4211 54.6686 19.0906 55.2299L20.8141 56.2447ZM21.4965 54.0964C21.4651 53.4204 21.0884 52.7474 20.8101 52.301C20.6547 52.0516 20.4904 51.8137 20.3478 51.6102C20.1974 51.3957 20.0842 51.2376 19.9995 51.1076L18.3239 52.1995C18.433 52.367 18.5793 52.5717 18.71 52.7582C18.8486 52.9559 18.9873 53.1575 19.1128 53.3589C19.3966 53.8142 19.494 54.0885 19.4987 54.1894L21.4965 54.0964ZM19.9995 51.1076C19.7376 50.7057 19.4545 50.3753 19.1894 50.0828C18.9098 49.7743 18.6851 49.5439 18.4424 49.2542L16.9093 50.5387C17.1842 50.8667 17.4833 51.1786 17.7076 51.426C17.9464 51.6895 18.1475 51.9288 18.3239 52.1995L19.9995 51.1076ZM18.4424 49.2542C18.1895 48.9524 17.8516 48.7037 17.6139 48.531C17.3323 48.3264 17.1439 48.1953 17.0003 48.0611C16.8438 47.9148 16.9307 47.9331 16.9462 48.0941C16.9679 48.3203 16.8229 48.3714 16.997 48.214L15.6556 46.7305C15.2429 47.1036 14.892 47.6262 14.9553 48.2853C15.0123 48.8792 15.3883 49.292 15.6347 49.5223C15.894 49.7646 16.2225 49.9922 16.4382 50.1489C16.6978 50.3376 16.8375 50.453 16.9093 50.5387L18.4424 49.2542ZM16.997 48.214C17.1256 48.0976 17.3868 47.8766 17.5593 47.7105C17.7529 47.5241 17.995 47.2638 18.1583 46.9257C18.3369 46.5557 18.4054 46.1252 18.292 45.6598C18.1863 45.2262 17.9403 44.8343 17.626 44.473L16.1171 45.7858C16.313 46.0109 16.346 46.1218 16.3489 46.1334C16.3491 46.1342 16.3456 46.1182 16.3487 46.0925C16.3516 46.0678 16.3582 46.0541 16.3572 46.0561C16.3487 46.0739 16.3092 46.1378 16.1721 46.2698C16.1075 46.332 16.0338 46.3978 15.9443 46.476C15.8602 46.5497 15.7556 46.6401 15.6556 46.7305L16.997 48.214ZM17.626 44.473C17.1123 43.8825 16.4835 43.536 16.1965 43.3361C15.9062 43.1339 15.7063 42.9499 15.5458 42.5189L13.6715 43.2168C14.0152 44.1398 14.541 44.6203 15.0533 44.9771C15.5688 45.3363 15.8194 45.4435 16.1171 45.7858L17.626 44.473ZM15.5458 42.5189C15.5009 42.3982 15.4993 42.3352 15.5001 42.3161C15.5007 42.3023 15.5023 42.2998 15.5057 42.2937C15.5244 42.2604 15.6068 42.1592 15.8779 42.0136C16.1428 41.8713 16.4583 41.7521 16.843 41.6035C17.1815 41.4728 17.6299 41.2998 17.9831 41.0656L16.8778 39.3987C16.7399 39.4902 16.5079 39.5889 16.1225 39.7378C15.7834 39.8687 15.3316 40.0368 14.9318 40.2515C14.538 40.4629 14.0581 40.7882 13.7628 41.3127C13.436 41.8933 13.4241 42.5524 13.6715 43.2168L15.5458 42.5189ZM17.9831 41.0656C18.5068 40.7184 18.9834 40.0523 19.2051 39.3826C19.429 38.7064 19.4979 37.5984 18.4983 36.9167L17.3714 38.569C17.3798 38.5747 17.3705 38.5699 17.3587 38.5515C17.3474 38.5339 17.3449 38.5212 17.3453 38.5229C17.3477 38.5361 17.3539 38.6108 17.3065 38.7539C17.2611 38.891 17.1826 39.0404 17.087 39.1726C16.9865 39.3115 16.9031 39.382 16.8778 39.3987L17.9831 41.0656ZM18.4983 36.9167C18.6702 37.034 18.6641 37.156 18.6184 36.9948C18.5831 36.8702 18.5544 36.684 18.53 36.4271C18.5183 36.3036 18.5086 36.1763 18.4984 36.0415C18.4885 35.9103 18.478 35.7693 18.4654 35.6345C18.4428 35.3916 18.4054 35.0581 18.3053 34.7745L16.4193 35.4398C16.4188 35.4384 16.4283 35.4672 16.4408 35.5436C16.4527 35.6159 16.4635 35.7069 16.4741 35.8204C16.4847 35.9338 16.4938 36.0553 16.5041 36.1919C16.5141 36.3249 16.5252 36.4706 16.539 36.6162C16.5657 36.8973 16.6071 37.233 16.6942 37.5401C16.7709 37.8107 16.9394 38.2744 17.3714 38.569L18.4983 36.9167ZM18.3053 34.7745C18.1542 34.3459 18.0555 33.2772 18.1356 32.1636C18.1742 31.627 18.2505 31.143 18.3557 30.7794C18.4082 30.5979 18.4609 30.4716 18.5043 30.3926C18.5517 30.3064 18.5604 30.3267 18.4983 30.369L17.3714 28.7167C17.0792 28.916 16.8837 29.1888 16.7515 29.4293C16.6154 29.677 16.5132 29.9515 16.4345 30.2234C16.2772 30.7668 16.1853 31.4004 16.1407 32.0202C16.0545 33.2195 16.1297 34.6191 16.4193 35.4398L18.3053 34.7745ZM18.4983 30.369C18.6941 30.2354 18.8604 30.1501 19.0748 30.0313C19.2566 29.9306 19.5535 29.7657 19.7931 29.4989C20.3796 28.8459 20.3161 27.9995 20.1246 27.1311L18.1715 27.5617C18.2572 27.9504 18.2648 28.143 18.2577 28.2277C18.2538 28.2737 18.2547 28.2186 18.3052 28.1624C18.3172 28.149 18.3018 28.1732 18.1058 28.2817C17.9424 28.3722 17.6653 28.5162 17.3714 28.7167L18.4983 30.369ZM20.1246 27.1311C19.9096 26.1557 19.78 25.24 19.78 24.2714H17.78C17.78 25.4256 17.9355 26.4912 18.1715 27.5617L20.1246 27.1311ZM19.78 24.2714C19.78 24.0588 19.7683 23.834 19.7621 23.6684C19.7553 23.4858 19.7535 23.3467 19.7622 23.227C19.7788 22.9954 19.8258 22.9569 19.8387 22.9447L18.4575 21.4982C17.9389 21.9934 17.8018 22.6045 17.7673 23.0833C17.7504 23.3188 17.7563 23.5501 17.7635 23.743C17.7713 23.9529 17.78 24.1086 17.78 24.2714H19.78ZM19.8387 22.9447C20.0611 22.7322 20.1685 22.4779 20.2244 22.3069C20.2847 22.1226 20.3178 21.9322 20.3377 21.7615C20.3776 21.42 20.3778 21.0357 20.3664 20.6853C20.3548 20.3289 20.3293 19.9669 20.3082 19.6666C20.2856 19.3456 20.2708 19.1275 20.2708 19H18.2708C18.2708 19.216 18.2931 19.5221 18.3131 19.8069C18.3346 20.1124 18.3573 20.4376 18.3675 20.7505C18.3779 21.0695 18.3737 21.3367 18.3512 21.5295C18.3399 21.626 18.3274 21.6733 18.3235 21.6852C18.3153 21.7103 18.34 21.6103 18.4575 21.4982L19.8387 22.9447ZM120.5 5H16.5V7H120.5V5ZM15.5 6V19H17.5V6H15.5ZM16.5 20H120.5V18H16.5V20ZM121.5 19V7.34483H119.5V19H121.5ZM119.5 6V11H121.5V6H119.5ZM118.5 254H14.5V256H118.5V254ZM13.5 255V268H15.5V255H13.5ZM14.5 269H118.5V267H14.5V269ZM119.5 268V256.345H117.5V268H119.5ZM117.5 255V260H119.5V255H117.5ZM120 1.5V24.5H122V1.5H120ZM121 25.5H124.5V23.5H121V25.5ZM124.5 0.5H121V2.5H124.5V0.5ZM125.5 8V1.5H123.5V8H125.5ZM124.5 9H129.5V7H124.5V9ZM125.5 24.5V16.25H123.5V24.5H125.5ZM125.5 16.25V8H123.5V16.25H125.5ZM129.45 15.0012L124.45 15.2512L124.55 17.2488L129.55 16.9988L129.45 15.0012ZM128.5 14V16H130.5V14H128.5ZM129.5 15H134.5V13H129.5V15ZM135.5 14V10H133.5V14H135.5ZM128.5 8V10H130.5V8H128.5ZM134.5 9H129.5V11H134.5V9ZM117.5 250.5V273.5H119.5V250.5H117.5ZM118.5 274.5H122V272.5H118.5V274.5ZM122 249.5H118.5V251.5H122V249.5ZM123 257V250.5H121V257H123ZM122 258H127V256H122V258ZM123 273.5V265.25H121V273.5H123ZM123 265.25V257H121V265.25H123ZM126.95 264.001L121.95 264.251L122.05 266.249L127.05 265.999L126.95 264.001ZM126 263V265H128V263H126ZM127 264H132V262H127V264ZM133 263V259H131V263H133ZM126 257V259H128V257H126ZM132 258H127V260H132V258ZM14.5 273H11V275H14.5V273ZM11 252H14.5V250H11V252ZM12 257.5V251H10V257.5H12ZM11 256.5H6V258.5H11V256.5ZM12 274V265.75H10V274H12ZM12 265.75V257.5H10V265.75H12ZM5.95006 266.499L10.9501 266.749L11.0499 264.751L6.04994 264.501L5.95006 266.499ZM5 263.5V265.5H7V263.5H5ZM6 262.5H1V264.5H6V262.5ZM2 263.5V259.5H0V263.5H2ZM5 257.5V259.5H7V257.5H5ZM1 260.5H6V258.5H1V260.5ZM16.5 24H13V26H16.5V24ZM13 3H16.5V1H13V3ZM14 8.5V2H12V8.5H14ZM13 7.5H8V9.5H13V7.5ZM14 25V16.75H12V25H14ZM14 16.75V8.5H12V16.75H14ZM7.95006 17.4988L12.9501 17.7488L13.0499 15.7512L8.04994 15.5012L7.95006 17.4988ZM7 14.5V16.5H9V14.5H7ZM8 13.5H3V15.5H8V13.5ZM4 14.5V10.5H2V14.5H4ZM7 8.5V10.5H9V8.5H7ZM3 11.5H8V9.5H3V11.5ZM128.5 10V14H130.5V10H128.5ZM126 259V263H128V259H126ZM5 259.5V263.5H7V259.5H5ZM13.5 251V274H15.5V251H13.5ZM7 10.5V14.5H9V10.5H7ZM15.5 2V25H17.5V2H15.5Z" fill="black"/>
</svg>
