<svg width="275" height="136" viewBox="0 0 275 136" fill="none" xmlns="http://www.w3.org/2000/svg">
<path d="M60.5976 17.4669C60.1547 17.1368 59.5282 17.2283 59.1982 17.6711C58.8682 18.114 58.9596 18.7405 59.4024 19.0705L60.5976 17.4669ZM63.8281 21.072L63.118 21.7761L63.118 21.7761L63.8281 21.072ZM65.6804 21.8684L65.2116 20.9851L65.2116 20.9851L65.6804 21.8684ZM69.2306 19.2881L69.7974 20.1119L69.7974 20.1119L69.2306 19.2881ZM71.8856 18.0457L72.1882 17.0926L72.1882 17.0926L71.8856 18.0457ZM78.7699 18.5713L78.5855 19.5542L78.5855 19.5542L78.7699 18.5713ZM80.2981 19.1129L80.1701 18.1211L80.1701 18.1211L80.2981 19.1129ZM82.2275 19.4792L81.439 20.0942L81.439 20.0942L82.2275 19.4792ZM83.6168 20.3712L83.0234 19.5662L83.0234 19.5662L83.6168 20.3712ZM89.9917 18.8421L89.4497 19.6825L89.4497 19.6825L89.9917 18.8421ZM93.7426 18.5713L93.5582 17.5885L93.5582 17.5885L93.7426 18.5713ZM96.1815 17.759L95.7646 18.668L95.7646 18.668L96.1815 17.759ZM98.9599 19.5748L99.5267 20.3987L99.5267 20.3987L98.9599 19.5748ZM100.905 17.4723L100.517 16.5504L100.517 16.5504L100.905 17.4723ZM102.942 17.3767L102.779 16.3901L102.779 16.3901L102.942 17.3767ZM111.679 17.4086L111.001 18.1433L111.001 18.1433L111.679 17.4086ZM115.507 16.8352L116.06 17.6685L116.06 17.6685L115.507 16.8352ZM118.779 17.6953L119.287 16.8339L119.287 16.8339L118.779 17.6953ZM122.499 20.6897L121.73 21.3287L121.73 21.3287L122.499 20.6897ZM128.967 20.2756L128.927 19.2764L128.927 19.2764L128.967 20.2756ZM135.975 18.9695L136.693 19.6654L136.693 19.6654L135.975 18.9695ZM140.698 19.4155L139.798 18.9794L139.798 18.9794L140.698 19.4155ZM144.187 15.0194L144.684 14.1518L144.684 14.1518L144.187 15.0194ZM146.471 18.7784L146.82 19.7158L146.82 19.7158L146.471 18.7784ZM149.327 15.8158L149.953 15.0359L149.953 15.0359L149.327 15.8158ZM155.424 18.6191L155.7 17.6578L155.7 17.6578L155.424 18.6191ZM163.25 19.973L163.407 20.9606L163.407 20.9606L163.25 19.973ZM174.086 19.6703L173.748 18.7291L173.748 18.7291L174.086 19.6703ZM176 18.2846L175.776 17.3099L175.776 17.3099L176 18.2846ZM177.96 20.4349L178.851 19.9795L178.851 19.9795L177.96 20.4349ZM180.523 20.4986L179.842 19.7658L179.842 19.7658L180.523 20.4986ZM183.502 19.0014L182.876 18.2215L182.876 18.2215L183.502 19.0014ZM189.259 16.3255L188.579 15.5927L188.579 15.5927L189.259 16.3255ZM199.061 17.1059L198.838 18.0806L198.838 18.0807L199.061 17.1059ZM199.081 17.1104L199.304 16.1357L199.304 16.1356L199.081 17.1104ZM201.701 18.2687L202.398 17.5525L202.398 17.5525L201.701 18.2687ZM208.214 19.7022L207.863 18.7659L207.863 18.7659L208.214 19.7022ZM214.142 18.3324L214.335 17.3512L214.335 17.3512L214.142 18.3324ZM216.488 18.8421L216.45 17.8428L216.45 17.8428L216.488 18.8421ZM219.066 17.9979L219.289 17.0232L219.289 17.0232L219.066 17.9979ZM222.786 20.0685L223.531 19.4018L223.531 19.4018L222.786 20.0685ZM225.256 18.4917L225.936 19.2244L225.936 19.2244L225.256 18.4917ZM240.259 19.9252L240.964 19.2163L240.964 19.2163L240.259 19.9252ZM242.96 19.5588L243.458 20.4264L243.458 20.4264L242.96 19.5588ZM250.107 20.4986L250.788 19.7659L250.788 19.7658L250.107 20.4986ZM253.071 20.403L253.529 21.2917L253.529 21.2917L253.071 20.403ZM251.99 19.5623C251.438 19.5623 250.99 20.01 250.99 20.5623C250.99 21.1146 251.438 21.5623 251.99 21.5623V19.5623ZM59.8129 18.9477C60.3555 19.051 60.879 18.695 60.9823 18.1524C61.0857 17.6099 60.7296 17.0863 60.1871 16.983L59.8129 18.9477ZM55.7373 16.5476L56.2447 15.6859L56.2447 15.6859L55.7373 16.5476ZM54.1429 16.0024L54.1894 17.0013L54.1894 17.0013L54.1429 16.0024ZM51.6536 17.3383L52.1995 18.1761L52.1995 18.1761L51.6536 17.3383ZM49.8964 18.8242L50.5387 19.5907L50.5387 19.5907L49.8964 18.8242ZM47.4722 20.1737L46.7305 20.8444L46.7305 20.8444L47.4722 20.1737ZM45.1294 19.6284L45.7858 20.3829L45.7858 20.3829L45.1294 19.6284ZM42.8679 21.8913L43.2168 22.8285L42.8679 21.8913ZM40.2321 19.0695L39.3987 19.6222L39.3987 19.6222L40.2321 19.0695ZM37.7429 18.5652L36.9167 18.0017L36.9167 18.0017L37.7429 18.5652ZM35.1071 19.1377L35.4398 20.0807L35.4398 20.0807L35.1071 19.1377ZM29.5429 18.5652L30.369 18.0017L30.369 18.0017L29.5429 18.5652ZM27.3464 17.3519L27.1311 16.3754L27.1311 16.3754L27.3464 17.3519ZM22.2214 17.3519L22.9447 16.6613L22.9447 16.6613L22.2214 17.3519ZM19 16.2292C18.4477 16.2292 18 16.6769 18 17.2292C18 17.7815 18.4477 18.2292 19 18.2292V16.2292ZM60.5976 115.467C60.1547 115.137 59.5282 115.228 59.1982 115.671C58.8682 116.114 58.9596 116.74 59.4024 117.071L60.5976 115.467ZM63.8281 119.072L63.118 119.776L63.118 119.776L63.8281 119.072ZM65.6804 119.868L65.2116 118.985L65.2116 118.985L65.6804 119.868ZM69.2306 117.288L69.7974 118.112L69.7974 118.112L69.2306 117.288ZM71.8856 116.046L72.1882 115.093L72.1882 115.093L71.8856 116.046ZM78.7699 116.571L78.5855 117.554L78.5855 117.554L78.7699 116.571ZM80.2981 117.113L80.1701 116.121L80.1701 116.121L80.2981 117.113ZM82.2275 117.479L81.439 118.094L81.439 118.094L82.2275 117.479ZM83.6168 118.371L83.0234 117.566L83.0234 117.566L83.6168 118.371ZM89.9917 116.842L89.4497 117.682L89.4497 117.682L89.9917 116.842ZM93.7426 116.571L93.5582 115.588L93.5582 115.588L93.7426 116.571ZM96.1815 115.759L95.7646 116.668L95.7646 116.668L96.1815 115.759ZM98.9599 117.575L99.5267 118.399L99.5267 118.399L98.9599 117.575ZM100.905 115.472L100.517 114.55L100.517 114.55L100.905 115.472ZM102.942 115.377L102.779 114.39L102.779 114.39L102.942 115.377ZM111.679 115.409L111.001 116.143L111.001 116.143L111.679 115.409ZM115.507 114.835L116.06 115.668L116.06 115.668L115.507 114.835ZM118.779 115.695L119.287 114.834L119.287 114.834L118.779 115.695ZM122.499 118.69L121.73 119.329L121.73 119.329L122.499 118.69ZM128.967 118.276L128.927 117.276L128.927 117.276L128.967 118.276ZM135.975 116.97L136.693 117.665L136.693 117.665L135.975 116.97ZM140.698 117.415L139.798 116.979L139.798 116.979L140.698 117.415ZM144.187 113.019L144.684 112.152L144.684 112.152L144.187 113.019ZM146.471 116.778L146.82 117.716L146.82 117.716L146.471 116.778ZM149.327 113.816L149.953 113.036L149.953 113.036L149.327 113.816ZM155.424 116.619L155.7 115.658L155.7 115.658L155.424 116.619ZM163.25 117.973L163.407 118.961L163.407 118.961L163.25 117.973ZM174.086 117.67L173.748 116.729L173.748 116.729L174.086 117.67ZM176 116.285L175.776 115.31L175.776 115.31L176 116.285ZM177.96 118.435L178.851 117.98L178.851 117.98L177.96 118.435ZM180.523 118.499L179.842 117.766L179.842 117.766L180.523 118.499ZM183.502 117.001L182.876 116.221L182.876 116.221L183.502 117.001ZM189.259 114.325L188.579 113.593L188.579 113.593L189.259 114.325ZM199.061 115.106L198.838 116.081L198.838 116.081L199.061 115.106ZM199.081 115.11L199.304 114.136L199.304 114.136L199.081 115.11ZM201.701 116.269L202.398 115.553L202.398 115.553L201.701 116.269ZM208.214 117.702L207.863 116.766L207.863 116.766L208.214 117.702ZM214.142 116.332L214.335 115.351L214.335 115.351L214.142 116.332ZM216.488 116.842L216.45 115.843L216.45 115.843L216.488 116.842ZM219.066 115.998L219.289 115.023L219.289 115.023L219.066 115.998ZM222.786 118.069L223.531 117.402L223.531 117.402L222.786 118.069ZM225.256 116.492L225.936 117.224L225.936 117.224L225.256 116.492ZM240.259 117.925L240.964 117.216L240.964 117.216L240.259 117.925ZM242.96 117.559L243.458 118.426L243.458 118.426L242.96 117.559ZM250.107 118.499L250.788 117.766L250.788 117.766L250.107 118.499ZM253.071 118.403L253.529 119.292L253.529 119.292L253.071 118.403ZM251.99 117.562C251.438 117.562 250.99 118.01 250.99 118.562C250.99 119.115 251.438 119.562 251.99 119.562V117.562ZM59.8129 117.948C60.3555 118.051 60.879 117.695 60.9823 117.152C61.0857 116.61 60.7296 116.086 60.1871 115.983L59.8129 117.948ZM55.7373 115.548L56.2447 114.686L56.2447 114.686L55.7373 115.548ZM54.1429 115.002L54.1894 116.001L54.1894 116.001L54.1429 115.002ZM51.6536 116.338L52.1995 117.176L52.1995 117.176L51.6536 116.338ZM49.8964 117.824L50.5387 118.591L50.5387 118.591L49.8964 117.824ZM47.4722 119.174L46.7305 119.844L46.7305 119.844L47.4722 119.174ZM45.1294 118.628L45.7858 119.383L45.7858 119.383L45.1294 118.628ZM42.8679 120.891L43.2168 121.828L42.8679 120.891ZM40.2321 118.07L39.3987 118.622L39.3987 118.622L40.2321 118.07ZM37.7429 117.565L36.9167 117.002L36.9167 117.002L37.7429 117.565ZM35.1071 118.138L35.4398 119.081L35.4398 119.081L35.1071 118.138ZM29.5429 117.565L30.369 117.002L30.369 117.002L29.5429 117.565ZM27.3464 116.352L27.1311 115.375L27.1311 115.375L27.3464 116.352ZM22.2214 116.352L22.9447 115.661L22.9447 115.661L22.2214 116.352ZM19 115.229C18.4477 115.229 18 115.677 18 116.229C18 116.782 18.4477 117.229 19 117.229V115.229ZM6 15V14H5V15H6ZM6 119H5V120H6V119ZM19 119V120H20V119H19ZM19 15H20V14H19V15ZM255 17V16H254V17H255ZM255 121H254V122H255V121ZM268 121V122H269V121H268ZM268 17H269V16H268V17ZM1.5 14.5H0.5V15.5H1.5V14.5ZM24.5 14.5V15.5H25.5V14.5H24.5ZM24.5 11H25.5V10H24.5V11ZM1.5 11V10H0.5L0.5 11H1.5ZM8 6V5H7V6H8ZM16 6L16.9988 5.95006L16.9512 5H16V6ZM14 1H15V0H14V1ZM10 1V0H9V1H10ZM250.5 17H249.5V18H250.5V17ZM273.5 17V18H274.5V17H273.5ZM273.5 13.5H274.5V12.5H273.5V13.5ZM250.5 13.5V12.5H249.5V13.5H250.5ZM257 8.5V7.5H256V8.5H257ZM265 8.5L265.999 8.45006L265.951 7.5H265V8.5ZM263 3.5H264V2.5H263V3.5ZM259 3.5V2.5H258V3.5H259ZM251 121V120H250V121H251ZM274 121H275V120H274V121ZM274 124.5V125.5H275V124.5H274ZM251 124.5H250V125.5H251V124.5ZM257.5 129.5H256.5V130.5H257.5V129.5ZM265.5 129.5V130.5H266.451L266.499 129.55L265.5 129.5ZM263.5 134.5V135.5H264.5V134.5H263.5ZM259.5 134.5H258.5V135.5H259.5V134.5ZM2 119V118H1V119H2ZM25 119H26V118H25V119ZM25 122.5V123.5H26V122.5H25ZM2 122.5H1V123.5H2V122.5ZM8.5 127.5H7.5V128.5H8.5V127.5ZM16.5 127.5V128.5H17.4512L17.4988 127.55L16.5 127.5ZM14.5 132.5V133.5H15.5V132.5H14.5ZM10.5 132.5H9.5V133.5H10.5V132.5ZM59.4024 19.0705C60.0698 19.5679 60.7998 20.0197 61.4116 20.4291C62.0491 20.8556 62.6197 21.2736 63.118 21.7761L64.5381 20.3679C63.8976 19.7219 63.1951 19.216 62.5238 18.7668C61.8268 18.3005 61.2122 17.9249 60.5976 17.4669L59.4024 19.0705ZM63.118 21.7761C63.2962 21.9559 63.6896 22.4054 64.1165 22.6732C64.3598 22.8258 64.6711 22.9637 65.0447 22.9939C65.4274 23.0249 65.8003 22.9368 66.1491 22.7517L65.2116 20.9851C65.1592 21.0129 65.1649 20.9971 65.2061 21.0004C65.2383 21.003 65.234 21.0133 65.1794 20.979C65.1196 20.9415 65.0388 20.8758 64.9231 20.7625C64.867 20.7076 64.8095 20.6483 64.7445 20.5807C64.6826 20.5164 64.61 20.4403 64.5381 20.3679L63.118 21.7761ZM66.1491 22.7517C66.8218 22.3947 67.4887 21.8937 68.0896 21.4226C68.7184 20.9297 69.2677 20.4763 69.7974 20.1119L68.6638 18.4642C68.0658 18.8756 67.4267 19.401 66.8557 19.8486C66.2569 20.318 65.7124 20.7193 65.2116 20.9851L66.1491 22.7517ZM69.7974 20.1119C70.0204 19.9585 70.2539 19.7659 70.4412 19.6152C70.6456 19.4506 70.8241 19.3113 70.9984 19.1993C71.366 18.9628 71.515 18.9772 71.5829 18.9988L72.1882 17.0926C71.2538 16.7959 70.4423 17.179 69.9166 17.5171C69.6441 17.6923 69.3927 17.8917 69.1871 18.0571C68.9645 18.2364 68.8079 18.3651 68.6638 18.4642L69.7974 20.1119ZM71.5829 18.9988C72.3652 19.2472 73.1652 19.3052 73.8987 19.3102C74.2669 19.3127 74.6336 19.3017 74.9786 19.2907C75.3299 19.2796 75.657 19.2687 75.976 19.2687L75.976 17.2687C75.6187 17.2687 75.2569 17.2809 74.9153 17.2917C74.5674 17.3027 74.2369 17.3125 73.9123 17.3102C73.2601 17.3058 72.6912 17.2523 72.1882 17.0926L71.5829 18.9988ZM75.976 19.2687C76.6934 19.2687 77.803 19.4074 78.5855 19.5542L78.9543 17.5885C78.1111 17.4303 76.8666 17.2687 75.976 17.2687L75.976 19.2687ZM78.5855 19.5542C78.6648 19.569 78.6942 19.595 79.02 19.7815C79.3035 19.9438 79.7789 20.1881 80.426 20.1046L80.1701 18.1211C80.1654 18.1217 80.1699 18.1222 80.1648 18.1206C80.1473 18.1153 80.1088 18.1002 80.0136 18.0458C79.8788 17.9686 79.459 17.6831 78.9543 17.5885L78.5855 19.5542ZM80.426 20.1046C80.7172 20.0671 80.9605 20.0062 81.1226 19.9672C81.2093 19.9464 81.2639 19.9338 81.3094 19.9255C81.3526 19.9175 81.3667 19.9175 81.3639 19.9175C81.332 19.9181 81.278 19.9054 81.2463 19.8864C81.2416 19.8835 81.3037 19.9207 81.439 20.0942L83.016 18.8642C82.8041 18.5924 82.566 18.3464 82.2777 18.1728C81.9625 17.9831 81.6416 17.9123 81.3287 17.9179C81.0602 17.9226 80.8056 17.9865 80.6551 18.0226C80.478 18.0652 80.3376 18.0995 80.1701 18.1211L80.426 20.1046ZM81.439 20.0942C81.4842 20.1521 81.5329 20.2363 81.6295 20.4103C81.7048 20.546 81.8353 20.7866 82.0055 20.9896C82.1843 21.2029 82.5092 21.4998 83.0097 21.5528C83.4969 21.6043 83.9084 21.3985 84.2101 21.1761L83.0234 19.5662C82.9192 19.6431 83.0055 19.5411 83.2203 19.5639C83.4485 19.588 83.5538 19.7233 83.5381 19.7046C83.5139 19.6757 83.4749 19.614 83.3781 19.4396C83.3026 19.3035 83.1763 19.0697 83.016 18.8642L81.439 20.0942ZM84.2101 21.1761C84.4089 21.0296 84.5718 20.8834 84.6976 20.7691C84.835 20.6443 84.9098 20.5752 84.9863 20.5168C85.0513 20.4672 85.0891 20.4485 85.1161 20.4385C85.1409 20.4293 85.1889 20.4155 85.2838 20.4155L85.2838 18.4155C84.6222 18.4155 84.1525 18.6373 83.7728 18.927C83.6111 19.0505 83.4596 19.1917 83.3526 19.2889C83.2341 19.3967 83.1346 19.4842 83.0234 19.5662L84.2101 21.1761ZM85.2838 20.4155C85.8063 20.4155 86.3136 20.2878 86.7433 20.1553C86.9626 20.0878 87.1813 20.0125 87.3835 19.9428C87.5911 19.8713 87.7819 19.8054 87.9698 19.7467C88.7757 19.4948 89.1703 19.5023 89.4497 19.6825L90.5337 18.0017C89.4213 17.2843 88.2029 17.5784 87.3733 17.8377C87.1524 17.9067 86.9329 17.9827 86.7318 18.052C86.5255 18.1231 86.3373 18.1877 86.1545 18.244C85.78 18.3594 85.5023 18.4155 85.2838 18.4155L85.2838 20.4155ZM89.4497 19.6825C90.3216 20.2447 91.301 20.1694 92.0294 20.0289C92.4056 19.9563 92.7763 19.8531 93.0923 19.765C93.4259 19.6721 93.6916 19.5983 93.927 19.5542L93.5582 17.5885C93.2206 17.6518 92.865 17.7522 92.5556 17.8384C92.2287 17.9295 91.9346 18.0103 91.6505 18.0651C91.0584 18.1793 90.7355 18.1318 90.5337 18.0017L89.4497 19.6825ZM93.927 19.5542C94.2984 19.4845 94.6141 19.3168 94.8371 19.1848C94.9532 19.1162 95.0666 19.0432 95.1619 18.982C95.2628 18.9172 95.3465 18.8636 95.4281 18.8153C95.5973 18.715 95.6902 18.6794 95.7417 18.6683C95.7663 18.663 95.7588 18.6653 95.7646 18.668L96.5984 16.85C95.6646 16.4218 94.8513 16.8323 94.4087 17.0946C94.2908 17.1644 94.1768 17.2378 94.0811 17.2992C93.98 17.3642 93.8979 17.4167 93.8189 17.4634C93.652 17.5622 93.5793 17.5845 93.5582 17.5885L93.927 19.5542ZM95.7646 18.668C95.7263 18.6504 95.7919 18.6743 95.9873 18.9391C96.0726 19.0548 96.156 19.1775 96.2608 19.3289C96.3597 19.4718 96.4746 19.6356 96.5992 19.7931C96.8288 20.0833 97.1946 20.4908 97.723 20.6854C98.3441 20.9141 98.9726 20.7799 99.5267 20.3987L98.3932 18.7509C98.2593 18.843 98.306 18.7687 98.4141 18.8085C98.4296 18.8142 98.3511 18.7839 98.1677 18.5522C98.0858 18.4487 98.002 18.3304 97.9053 18.1907C97.8145 18.0595 97.7054 17.8991 97.5966 17.7517C97.4039 17.4905 97.075 17.0686 96.5984 16.85L95.7646 18.668ZM99.5267 20.3987C100.084 20.0155 100.49 19.3765 100.732 19.0314C101.057 18.5677 101.205 18.4309 101.292 18.3941L100.517 16.5504C99.8117 16.8471 99.3579 17.5068 99.0938 17.8836C98.7467 18.3789 98.577 18.6245 98.3932 18.7509L99.5267 20.3987ZM101.292 18.3941C101.351 18.3695 101.49 18.3477 101.857 18.3682C102.127 18.3832 102.654 18.4378 103.105 18.3634L102.779 16.3901C102.612 16.4178 102.415 16.3961 101.969 16.3713C101.619 16.3518 101.049 16.3268 100.517 16.5504L101.292 18.3941ZM103.105 18.3634C104.371 18.1544 105.302 17.4227 105.986 16.9399C106.721 16.4213 107.248 16.1149 107.944 16.1149V14.1149C106.566 14.1149 105.584 14.7756 104.833 15.306C104.031 15.8721 103.499 16.2713 102.779 16.3901L103.105 18.3634ZM107.944 16.1149C108.02 16.1149 108.192 16.1466 108.472 16.2752C108.739 16.3979 109.04 16.5787 109.357 16.7984C109.99 17.2377 110.601 17.7748 111.001 18.1433L112.357 16.6738C111.934 16.2825 111.243 15.6728 110.497 15.1552C110.124 14.8965 109.717 14.6463 109.306 14.4577C108.909 14.275 108.433 14.1149 107.944 14.1149V16.1149ZM111.001 18.1433C111.869 18.945 113.054 18.8453 113.856 18.6468C114.716 18.4341 115.538 18.0144 116.06 17.6685L114.954 16.0018C114.58 16.2503 113.967 16.5592 113.376 16.7054C112.727 16.8659 112.446 16.7557 112.357 16.6738L111.001 18.1433ZM116.06 17.6685C116.432 17.4215 116.618 17.3735 116.682 17.3654C116.702 17.363 116.707 17.3561 116.77 17.3938C116.886 17.4627 117.003 17.5693 117.278 17.812C117.523 18.0288 117.847 18.3065 118.272 18.5567L119.287 16.8339C119.034 16.6844 118.826 16.5114 118.601 16.3127C118.406 16.14 118.113 15.8665 117.796 15.677C117.427 15.4561 116.976 15.3124 116.432 15.3811C115.933 15.4442 115.447 15.6753 114.954 16.0018L116.06 17.6685ZM118.272 18.5567C119.729 19.4163 120.669 20.0513 121.73 21.3287L123.269 20.0508C121.991 18.5129 120.822 17.7389 119.287 16.8339L118.272 18.5567ZM121.73 21.3287C122.144 21.8264 122.752 21.929 123.129 21.9534C123.547 21.9805 123.997 21.9292 124.387 21.8677C124.78 21.8058 125.189 21.7197 125.501 21.659C125.857 21.5895 126.047 21.5623 126.127 21.5623V19.5623C125.816 19.5623 125.427 19.6357 125.118 19.6959C124.764 19.7648 124.421 19.8376 124.075 19.8922C123.726 19.9472 123.451 19.9701 123.258 19.9576C123.025 19.9424 123.137 19.8916 123.269 20.0508L121.73 21.3287ZM126.127 21.5623C126.697 21.5623 127.24 21.4899 127.713 21.4227C128.208 21.3524 128.612 21.2905 129.007 21.2748L128.927 19.2764C128.406 19.2971 127.882 19.3786 127.432 19.4425C126.96 19.5096 126.541 19.5623 126.127 19.5623V21.5623ZM129.007 21.2748C129.178 21.268 129.335 21.3182 129.717 21.475C130.063 21.6168 130.602 21.849 131.282 21.849V19.849C131.048 19.849 130.85 19.7779 130.476 19.6247C130.139 19.4864 129.596 19.2499 128.927 19.2764L129.007 21.2748ZM131.282 21.849C133.353 21.849 135.167 21.2401 136.693 19.6654L135.257 18.2736C134.169 19.3965 132.906 19.849 131.282 19.849V21.849ZM136.693 19.6654C136.696 19.6628 136.633 19.7149 136.533 19.7185C136.473 19.7206 136.486 19.7004 136.607 19.7636C136.898 19.9153 137.177 20.1726 137.693 20.568C137.917 20.7393 138.181 20.929 138.466 21.0788C138.748 21.2274 139.11 21.3686 139.523 21.3802C140.5 21.4077 141.168 20.7385 141.598 19.8516L139.798 18.9794C139.525 19.5446 139.415 19.3764 139.579 19.381C139.586 19.3812 139.533 19.3801 139.397 19.3086C139.263 19.2384 139.105 19.1304 138.909 18.9799C138.584 18.7315 138.027 18.2482 137.53 17.9894C137.257 17.8474 136.887 17.7044 136.461 17.7198C135.995 17.7366 135.582 17.9378 135.257 18.2736L136.693 19.6654ZM141.598 19.8516C141.702 19.6364 142.387 18.5092 143.143 17.4524C143.517 16.9295 143.876 16.4693 144.16 16.1698C144.308 16.0138 144.394 15.9462 144.42 15.9293C144.434 15.9203 144.384 15.9567 144.282 15.9806C144.169 16.0069 143.936 16.0284 143.689 15.8869L144.684 14.1518C144.364 13.9683 144.042 13.9828 143.826 14.0331C143.621 14.0811 143.454 14.1727 143.34 14.246C143.11 14.3936 142.893 14.5992 142.709 14.7937C142.328 15.1949 141.905 15.7446 141.516 16.2892C140.745 17.3675 139.979 18.6065 139.798 18.9794L141.598 19.8516ZM143.689 15.8869C143.535 15.7986 143.508 15.7046 143.573 15.8142C143.618 15.8918 143.678 16.0173 143.754 16.2019C143.915 16.5966 144.051 17.0121 144.253 17.5434C144.43 18.0107 144.656 18.5628 144.945 18.979C145.089 19.1868 145.302 19.4415 145.606 19.614C145.953 19.8106 146.383 19.8778 146.82 19.7158L146.123 17.841C146.297 17.7762 146.481 17.8109 146.594 17.8746C146.663 17.9143 146.655 17.9358 146.589 17.8395C146.455 17.6474 146.302 17.3075 146.123 16.8346C145.968 16.4255 145.771 15.8524 145.605 15.4454C145.517 15.2291 145.414 15.0006 145.297 14.8003C145.198 14.6319 145.006 14.3362 144.684 14.1518L143.689 15.8869ZM146.82 19.7158C147.506 19.4606 147.904 18.8511 148.136 18.4282C148.376 17.9903 148.597 17.4294 148.751 17.0859C148.838 16.8908 148.912 16.7415 148.98 16.6294C149.052 16.5106 149.085 16.4887 149.067 16.5024C149.029 16.5325 148.916 16.5963 148.762 16.5844C148.636 16.5746 148.61 16.5228 148.701 16.5957L149.953 15.0359C149.679 14.8162 149.331 14.6225 148.916 14.5903C148.472 14.556 148.101 14.7168 147.828 14.9322C147.576 15.1312 147.397 15.3829 147.269 15.5945C147.136 15.8131 147.023 16.0513 146.925 16.2695C146.709 16.7529 146.571 17.1219 146.382 17.4675C146.185 17.828 146.084 17.8555 146.123 17.841L146.82 19.7158ZM148.701 16.5957C150.433 17.9857 153.218 19.027 155.149 19.5804L155.7 17.6578C153.821 17.1194 151.36 16.1651 149.953 15.0359L148.701 16.5957ZM155.149 19.5804C155.835 19.7772 156.346 20.1941 157.129 20.744C157.859 21.2576 158.797 21.849 160.086 21.849V19.849C159.453 19.849 158.952 19.5812 158.278 19.1076C157.656 18.6703 156.797 17.9723 155.7 17.6578L155.149 19.5804ZM160.086 21.849C160.85 21.849 161.519 21.6099 162.041 21.4093C162.612 21.19 162.995 21.0261 163.407 20.9606L163.093 18.9853C162.417 19.0926 161.782 19.3667 161.324 19.5422C160.819 19.7365 160.45 19.849 160.086 19.849V21.849ZM163.407 20.9606C164.863 20.7294 165.909 20.4155 167.124 20.4155V18.4155C165.704 18.4155 164.242 18.8029 163.093 18.9853L163.407 20.9606ZM167.124 20.4155C167.721 20.4155 168.247 20.5318 168.873 20.6765C169.477 20.8163 170.196 20.9889 171.014 20.9889V18.9889C170.459 18.9889 169.958 18.8748 169.323 18.7279C168.71 18.5859 167.978 18.4155 167.124 18.4155V20.4155ZM171.014 20.9889C172.023 20.9889 173.193 21.0532 174.424 20.6116L173.748 18.7291C172.922 19.0258 172.166 18.9889 171.014 18.9889V20.9889ZM174.424 20.6116C175.045 20.3886 175.51 19.8942 175.757 19.6509C175.91 19.5001 176.013 19.4021 176.108 19.3308C176.197 19.2631 176.231 19.2576 176.223 19.2593L175.776 17.3099C175.096 17.466 174.603 17.9792 174.353 18.2266C174.005 18.569 173.868 18.686 173.748 18.7291L174.424 20.6116ZM176.223 19.2593C176.031 19.3035 175.939 19.2042 176.019 19.2634C176.097 19.3212 176.218 19.446 176.367 19.6547C176.663 20.0693 176.908 20.5735 177.07 20.8903L178.851 19.9795C178.719 19.7222 178.398 19.0563 177.994 18.4918C177.794 18.2109 177.531 17.8939 177.209 17.656C176.89 17.4196 176.383 17.1708 175.776 17.3099L176.223 19.2593ZM177.07 20.8903C177.285 21.3103 177.591 21.6525 177.985 21.8774C178.378 22.1016 178.801 22.1769 179.2 22.1551C179.97 22.1132 180.683 21.7145 181.203 21.2313L179.842 19.7658C179.551 20.0365 179.26 20.1489 179.091 20.1581C179.02 20.162 178.989 20.1479 178.976 20.1404C178.965 20.1339 178.913 20.1024 178.851 19.9795L177.07 20.8903ZM181.203 21.2313C181.448 21.0043 181.78 20.8636 182.329 20.6677C182.815 20.4944 183.529 20.2615 184.128 19.7813L182.876 18.2215C182.593 18.4487 182.233 18.5784 181.657 18.784C181.145 18.9669 180.429 19.2211 179.842 19.7658L181.203 21.2313ZM184.128 19.7813C184.29 19.651 184.485 19.5813 184.79 19.5541C185.16 19.5208 185.453 19.5554 186.002 19.5554V17.5554C185.682 17.5554 185.09 17.5191 184.611 17.562C184.065 17.6109 183.446 17.7642 182.876 18.2215L184.128 19.7813ZM186.002 19.5554C187.11 19.5554 187.897 19.0835 188.503 18.5409C188.793 18.2819 189.054 17.9952 189.28 17.7466C189.518 17.4856 189.721 17.261 189.94 17.0582L188.579 15.5927C188.287 15.8636 188.025 16.1546 187.801 16.4006C187.566 16.6588 187.371 16.8704 187.17 17.0505C186.795 17.386 186.463 17.5554 186.002 17.5554V19.5554ZM189.94 17.0582C189.829 17.1606 189.768 17.1441 189.934 17.1056C190.064 17.0755 190.258 17.0492 190.518 17.0323C191.037 16.9987 191.702 17.0095 192.408 17.0426C193.11 17.0755 193.822 17.129 194.431 17.1751C195.013 17.2192 195.556 17.2618 195.85 17.2618V15.2618C195.653 15.2618 195.217 15.229 194.582 15.1809C193.976 15.1349 193.236 15.0793 192.502 15.0448C191.774 15.0106 191.02 14.9956 190.389 15.0365C190.075 15.0568 189.761 15.0927 189.483 15.1572C189.24 15.2133 188.868 15.3237 188.579 15.5927L189.94 17.0582ZM195.85 17.2618C196.223 17.2618 196.633 17.366 197.15 17.5408C197.615 17.6978 198.247 17.9452 198.838 18.0806L199.285 16.1312C198.825 16.0258 198.397 15.851 197.791 15.6462C197.238 15.4591 196.568 15.2618 195.85 15.2618V17.2618ZM198.838 18.0807L198.858 18.0852L199.304 16.1356L199.284 16.1311L198.838 18.0807ZM198.857 18.0851C199.852 18.3133 200.484 18.4799 201.003 18.9848L202.398 17.5525C201.42 16.5993 200.227 16.3474 199.304 16.1357L198.857 18.0851ZM201.003 18.9848C202.066 20.0215 203.168 20.7668 204.451 21.0683C205.741 21.3717 207.082 21.1951 208.566 20.6385L207.863 18.7659C206.62 19.2325 205.697 19.3067 204.908 19.1214C204.112 18.9341 203.32 18.451 202.398 17.5525L201.003 18.9848ZM208.566 20.6385C209.539 20.2734 210.404 19.8752 211.38 19.5765C212.323 19.288 213.178 19.1621 213.949 19.3136L214.335 17.3512C213.096 17.1076 211.871 17.3348 210.795 17.664C209.752 17.9831 208.659 18.4673 207.863 18.7659L208.566 20.6385ZM213.949 19.3136C214.336 19.3898 214.555 19.4876 214.982 19.6229C215.399 19.7552 215.874 19.8663 216.526 19.8414L216.45 17.8428C216.097 17.8563 215.86 17.8032 215.586 17.7164C215.322 17.6325 214.87 17.4563 214.335 17.3512L213.949 19.3136ZM216.526 19.8414C216.922 19.8262 217.273 19.7076 217.549 19.5894C217.819 19.4738 218.089 19.3249 218.281 19.2231C218.5 19.1075 218.645 19.0377 218.763 18.9994C218.874 18.9634 218.883 18.982 218.842 18.9726L219.289 17.0232C218.852 16.9229 218.452 16.9974 218.145 17.0973C217.844 17.1949 217.562 17.3411 217.346 17.4551C217.105 17.5828 216.935 17.6769 216.761 17.7511C216.594 17.8227 216.5 17.8409 216.45 17.8428L216.526 19.8414ZM218.842 18.9726C219.603 19.1472 220.135 19.3097 220.605 19.5554C221.062 19.7949 221.507 20.1394 222.041 20.7353L223.531 19.4018C222.875 18.668 222.245 18.1572 221.533 17.7838C220.832 17.4166 220.098 17.2087 219.289 17.0232L218.842 18.9726ZM222.041 20.7353C222.248 20.9671 222.508 21.1668 222.829 21.2764C223.159 21.3889 223.484 21.3833 223.775 21.3064C224.304 21.1662 224.702 20.7939 224.952 20.5221C225.223 20.2278 225.461 19.8897 225.635 19.6415C225.729 19.5078 225.799 19.4055 225.863 19.3202C225.933 19.2253 225.952 19.2092 225.936 19.2244L224.575 17.7589C224.446 17.8791 224.333 18.0249 224.256 18.1287C224.172 18.2423 224.08 18.3757 223.997 18.4944C223.817 18.751 223.649 18.9848 223.48 19.1681C223.291 19.3739 223.217 19.3851 223.262 19.3731C223.311 19.3602 223.391 19.355 223.476 19.3837C223.552 19.4097 223.567 19.4418 223.531 19.4018L222.041 20.7353ZM225.936 19.2244C225.798 19.3524 225.659 19.4096 225.591 19.4334C225.516 19.4603 225.452 19.4725 225.415 19.4784C225.343 19.4899 225.285 19.4905 225.264 19.4905C225.215 19.4906 225.179 19.4867 225.174 19.4861C225.157 19.4843 225.152 19.4831 225.171 19.4862C225.203 19.4916 225.257 19.5018 225.337 19.5174C225.499 19.5492 225.701 19.5909 225.939 19.6384C226.168 19.684 226.416 19.7324 226.633 19.7696C226.818 19.8013 227.073 19.8421 227.262 19.8421V17.8421C227.273 17.8421 227.191 17.8361 226.971 17.7983C226.782 17.766 226.556 17.7221 226.331 17.6771C226.115 17.634 225.884 17.5866 225.723 17.5549C225.641 17.5389 225.562 17.5238 225.499 17.5133C225.47 17.5085 225.427 17.5017 225.383 17.4971C225.364 17.4951 225.318 17.4905 225.262 17.4905C225.236 17.4906 225.176 17.4913 225.1 17.5033C225.085 17.5057 224.814 17.5374 224.575 17.7589L225.936 19.2244ZM227.262 19.8421C227.788 19.8421 228.301 19.7544 228.721 19.6856C229.167 19.6124 229.535 19.5554 229.902 19.5554V17.5554C229.348 17.5554 228.825 17.6418 228.397 17.7119C227.942 17.7865 227.596 17.8421 227.262 17.8421V19.8421ZM229.902 19.5554H237.141V17.5554H229.902V19.5554ZM237.141 19.5554C238.044 19.5554 238.282 19.5956 238.457 19.6749C238.659 19.7671 238.865 19.9489 239.554 20.6341L240.964 19.2163C240.379 18.6335 239.891 18.1304 239.285 17.8547C238.651 17.5661 237.968 17.5554 237.141 17.5554V19.5554ZM239.554 20.6341C240.281 21.3579 241.231 21.2856 241.848 21.128C242.487 20.9651 243.088 20.6385 243.458 20.4264L242.463 18.6913C242.109 18.8941 241.71 19.0993 241.354 19.1901C241.181 19.2343 241.069 19.2375 241.008 19.2293C240.981 19.2257 240.97 19.2207 240.969 19.2203C240.969 19.22 240.968 19.2199 240.968 19.2199C240.969 19.22 240.969 19.22 240.969 19.22C240.969 19.22 240.968 19.2198 240.968 19.2193C240.967 19.2188 240.966 19.2179 240.964 19.2163L239.554 20.6341ZM243.458 20.4264C243.912 20.1662 244.536 20.1057 245.398 20.1712C245.823 20.2035 246.244 20.2595 246.708 20.3137C247.154 20.3658 247.636 20.4155 248.101 20.4155V18.4155C247.762 18.4155 247.381 18.3787 246.94 18.3272C246.518 18.2779 246.027 18.2133 245.55 18.177C244.608 18.1054 243.465 18.1167 242.463 18.6913L243.458 20.4264ZM248.101 20.4155C248.585 20.4155 248.651 20.4857 248.67 20.4984C248.714 20.5292 248.773 20.5815 248.907 20.7168C249.028 20.8399 249.205 21.0253 249.427 21.2313L250.788 19.7658C250.608 19.599 250.479 19.4625 250.331 19.3126C250.195 19.1749 250.022 19.003 249.811 18.8563C249.319 18.514 248.783 18.4155 248.101 18.4155V20.4155ZM249.427 21.2313C249.653 21.4415 249.918 21.5291 250.073 21.5704C250.25 21.6178 250.435 21.6425 250.603 21.6561C250.942 21.6834 251.323 21.674 251.674 21.649C252.031 21.6237 252.387 21.5801 252.685 21.5291C252.833 21.5036 252.977 21.4747 253.104 21.4428C253.209 21.4165 253.377 21.3703 253.529 21.2917L252.612 19.5143C252.678 19.4803 252.701 19.4818 252.616 19.5032C252.553 19.519 252.463 19.538 252.347 19.5578C252.117 19.5972 251.826 19.6332 251.533 19.6541C251.234 19.6753 250.964 19.6787 250.764 19.6626C250.664 19.6545 250.608 19.6434 250.589 19.6382C250.546 19.6269 250.657 19.6449 250.788 19.7659L249.427 21.2313ZM253.529 21.2917C253.52 21.2965 253.544 21.2841 253.619 21.2615C253.688 21.2408 253.777 21.2187 253.882 21.1961C254.094 21.1507 254.335 21.1115 254.558 21.0785C254.754 21.0496 254.991 21.018 255.1 20.9994C255.125 20.9951 255.186 20.9848 255.248 20.9679C255.25 20.9675 255.38 20.9363 255.517 20.8536C255.559 20.8278 255.636 20.7772 255.716 20.6951C255.792 20.6172 255.926 20.4537 255.979 20.2011C256.116 19.5431 255.61 19.1959 255.516 19.1393C255.382 19.0579 255.26 19.0289 255.231 19.0218C255.182 19.01 255.142 19.0041 255.12 19.0011C255.075 18.9951 255.036 18.9928 255.015 18.9917C254.969 18.9894 254.92 18.9889 254.877 18.9889V20.9889C254.911 20.9889 254.919 20.9894 254.913 20.9891C254.912 20.9891 254.889 20.988 254.856 20.9836C254.839 20.9814 254.804 20.9763 254.759 20.9654C254.734 20.9592 254.614 20.9312 254.482 20.8508C254.39 20.7952 253.884 20.449 254.021 19.7923C254.074 19.5402 254.208 19.3773 254.283 19.3C254.362 19.2185 254.438 19.1685 254.48 19.1434C254.562 19.0934 254.633 19.0676 254.655 19.0594C254.687 19.0481 254.712 19.0411 254.725 19.0376C254.764 19.0269 254.788 19.0238 254.764 19.0278C254.679 19.0424 254.53 19.0609 254.266 19.1C254.029 19.1349 253.738 19.1815 253.463 19.2405C253.216 19.2934 252.879 19.3765 252.612 19.5143L253.529 21.2917ZM254.877 18.9889C254.189 18.9889 253.567 19.1795 253.107 19.3183C252.596 19.4727 252.283 19.5623 251.99 19.5623V21.5623C252.635 21.5623 253.247 21.3652 253.685 21.2329C254.175 21.085 254.527 20.9889 254.877 20.9889V18.9889ZM60.1871 16.983C58.7464 16.7087 57.3364 16.3287 56.2447 15.6859L55.2299 17.4094C56.6297 18.2335 58.3203 18.6635 59.8129 18.9477L60.1871 16.983ZM56.2447 15.6859C55.771 15.407 55.0991 14.9568 54.0964 15.0035L54.1894 17.0013C54.5039 16.9867 54.6686 17.0789 55.2299 17.4094L56.2447 15.6859ZM54.0964 15.0035C53.4204 15.0349 52.7474 15.4116 52.301 15.6899C52.0516 15.8453 51.8137 16.0096 51.6102 16.1522C51.3957 16.3026 51.2376 16.4158 51.1076 16.5005L52.1995 18.1761C52.367 18.067 52.5717 17.9207 52.7582 17.79C52.9559 17.6514 53.1575 17.5127 53.3589 17.3872C53.8142 17.1034 54.0885 17.006 54.1894 17.0013L54.0964 15.0035ZM51.1076 16.5005C50.7057 16.7624 50.3753 17.0454 50.0828 17.3106C49.7743 17.5902 49.5439 17.8149 49.2542 18.0576L50.5387 19.5907C50.8667 19.3158 51.1786 19.0167 51.426 18.7924C51.6895 18.5536 51.9288 18.3525 52.1995 18.1761L51.1076 16.5005ZM49.2542 18.0576C48.9524 18.3105 48.7037 18.6484 48.531 18.8861C48.3264 19.1677 48.1953 19.3561 48.0611 19.4997C47.9148 19.6562 47.9331 19.5693 48.0941 19.5538C48.3203 19.5321 48.3714 19.6771 48.214 19.503L46.7305 20.8444C47.1036 21.2571 47.6262 21.608 48.2853 21.5447C48.8792 21.4877 49.292 21.1117 49.5223 20.8653C49.7646 20.606 49.9922 20.2775 50.1489 20.0618C50.3376 19.8022 50.453 19.6625 50.5387 19.5907L49.2542 18.0576ZM48.214 19.503C48.0976 19.3744 47.8766 19.1132 47.7105 18.9407C47.5241 18.7471 47.2638 18.505 46.9257 18.3417C46.5557 18.1631 46.1252 18.0946 45.6598 18.208C45.2262 18.3137 44.8343 18.5597 44.473 18.874L45.7858 20.3829C46.0109 20.187 46.1218 20.154 46.1334 20.1511C46.1342 20.1509 46.1182 20.1544 46.0925 20.1514C46.0678 20.1484 46.0541 20.1418 46.0561 20.1428C46.0739 20.1513 46.1378 20.1908 46.2698 20.3279C46.332 20.3925 46.3978 20.4662 46.476 20.5557C46.5497 20.6398 46.6401 20.7444 46.7305 20.8444L48.214 19.503ZM44.473 18.874C43.8825 19.3877 43.536 20.0165 43.3361 20.3035C43.1339 20.5938 42.9499 20.7937 42.5189 20.9542L43.2168 22.8285C44.1398 22.4848 44.6203 21.959 44.9771 21.4467C45.3363 20.9312 45.4435 20.6806 45.7858 20.3829L44.473 18.874ZM42.5189 20.9542C42.3982 20.9991 42.3352 21.0007 42.3161 20.9999C42.3023 20.9993 42.2998 20.9977 42.2937 20.9943C42.2604 20.9756 42.1592 20.8932 42.0136 20.6221C41.8713 20.3572 41.7521 20.0417 41.6035 19.657C41.4728 19.3185 41.2998 18.8701 41.0656 18.5169L39.3987 19.6222C39.4902 19.7601 39.5889 19.9921 39.7378 20.3775C39.8687 20.7166 40.0368 21.1684 40.2515 21.5682C40.4629 21.962 40.7882 22.4419 41.3127 22.7372C41.8933 23.064 42.5524 23.0759 43.2168 22.8285L42.5189 20.9542ZM41.0656 18.5169C40.7184 17.9932 40.0523 17.5166 39.3826 17.2949C38.7064 17.071 37.5984 17.0021 36.9167 18.0017L38.569 19.1286C38.5747 19.1202 38.5699 19.1295 38.5515 19.1413C38.5339 19.1526 38.5212 19.1551 38.5229 19.1547C38.5361 19.1523 38.6108 19.1461 38.7539 19.1935C38.891 19.2389 39.0404 19.3174 39.1726 19.413C39.3115 19.5135 39.382 19.5969 39.3987 19.6222L41.0656 18.5169ZM36.9167 18.0017C37.034 17.8298 37.156 17.8359 36.9948 17.8816C36.8702 17.9169 36.684 17.9456 36.4271 17.97C36.3036 17.9817 36.1763 17.9914 36.0415 18.0016C35.9103 18.0115 35.7693 18.022 35.6345 18.0346C35.3916 18.0572 35.0581 18.0946 34.7745 18.1947L35.4398 20.0807C35.4384 20.0813 35.4672 20.0717 35.5436 20.0592C35.6159 20.0473 35.7069 20.0365 35.8204 20.0259C35.9338 20.0153 36.0553 20.0062 36.1919 19.9959C36.3249 19.9859 36.4706 19.9748 36.6162 19.961C36.8973 19.9343 37.233 19.8929 37.5401 19.8058C37.8107 19.7291 38.2744 19.5606 38.569 19.1286L36.9167 18.0017ZM34.7745 18.1947C34.3459 18.3459 33.2772 18.4445 32.1636 18.3644C31.627 18.3258 31.143 18.2495 30.7794 18.1443C30.5979 18.0918 30.4716 18.0391 30.3926 17.9957C30.3064 17.9483 30.3267 17.9396 30.369 18.0017L28.7167 19.1286C28.916 19.4208 29.1888 19.6163 29.4293 19.7485C29.677 19.8846 29.9515 19.9868 30.2234 20.0655C30.7668 20.2228 31.4004 20.3147 32.0202 20.3593C33.2195 20.4455 34.6191 20.3703 35.4398 20.0807L34.7745 18.1947ZM30.369 18.0017C30.2354 17.8059 30.1501 17.6396 30.0313 17.4252C29.9306 17.2434 29.7657 16.9465 29.4989 16.7069C28.8459 16.1203 27.9995 16.1839 27.1311 16.3754L27.5617 18.3285C27.9504 18.2428 28.143 18.2352 28.2277 18.2423C28.2737 18.2462 28.2186 18.2453 28.1624 18.1948C28.149 18.1828 28.1732 18.1982 28.2817 18.3942C28.3722 18.5576 28.5162 18.8347 28.7167 19.1286L30.369 18.0017ZM27.1311 16.3754C26.1557 16.5904 25.24 16.72 24.2714 16.72V18.72C25.4256 18.72 26.4912 18.5645 27.5617 18.3285L27.1311 16.3754ZM24.2714 16.72C24.0588 16.72 23.834 16.7317 23.6684 16.7379C23.4858 16.7447 23.3467 16.7465 23.227 16.7378C22.9954 16.7212 22.9569 16.6742 22.9447 16.6613L21.4982 18.0425C21.9934 18.5611 22.6045 18.6982 23.0833 18.7327C23.3188 18.7496 23.5501 18.7437 23.743 18.7365C23.9529 18.7287 24.1086 18.72 24.2714 18.72V16.72ZM22.9447 16.6613C22.7322 16.4389 22.4779 16.3315 22.3069 16.2756C22.1226 16.2153 21.9322 16.1822 21.7615 16.1623C21.42 16.1224 21.0357 16.1222 20.6853 16.1336C20.3289 16.1452 19.9669 16.1707 19.6666 16.1918C19.3456 16.2144 19.1275 16.2292 19 16.2292V18.2292C19.216 18.2292 19.5221 18.2069 19.8069 18.1869C20.1124 18.1654 20.4376 18.1427 20.7505 18.1325C21.0695 18.1221 21.3367 18.1263 21.5295 18.1488C21.6259 18.1601 21.6733 18.1726 21.6852 18.1765C21.7103 18.1847 21.6103 18.16 21.4982 18.0425L22.9447 16.6613ZM59.4024 117.071C60.0698 117.568 60.7998 118.02 61.4116 118.429C62.0491 118.856 62.6197 119.274 63.118 119.776L64.5381 118.368C63.8976 117.722 63.1951 117.216 62.5238 116.767C61.8268 116.3 61.2122 115.925 60.5976 115.467L59.4024 117.071ZM63.118 119.776C63.2962 119.956 63.6896 120.405 64.1165 120.673C64.3598 120.826 64.6711 120.964 65.0447 120.994C65.4274 121.025 65.8003 120.937 66.1491 120.752L65.2116 118.985C65.1592 119.013 65.1649 118.997 65.2061 119C65.2383 119.003 65.234 119.013 65.1794 118.979C65.1196 118.941 65.0388 118.876 64.9231 118.763C64.867 118.708 64.8095 118.648 64.7445 118.581C64.6826 118.516 64.61 118.44 64.5381 118.368L63.118 119.776ZM66.1491 120.752C66.8218 120.395 67.4887 119.894 68.0896 119.423C68.7184 118.93 69.2677 118.476 69.7974 118.112L68.6638 116.464C68.0658 116.876 67.4267 117.401 66.8557 117.849C66.2569 118.318 65.7124 118.719 65.2116 118.985L66.1491 120.752ZM69.7974 118.112C70.0204 117.959 70.2539 117.766 70.4412 117.615C70.6456 117.451 70.8241 117.311 70.9984 117.199C71.366 116.963 71.515 116.977 71.5829 116.999L72.1882 115.093C71.2538 114.796 70.4423 115.179 69.9166 115.517C69.6441 115.692 69.3927 115.892 69.1871 116.057C68.9645 116.236 68.8079 116.365 68.6638 116.464L69.7974 118.112ZM71.5829 116.999C72.3652 117.247 73.1652 117.305 73.8987 117.31C74.2669 117.313 74.6336 117.302 74.9786 117.291C75.3299 117.28 75.657 117.269 75.976 117.269V115.269C75.6187 115.269 75.2569 115.281 74.9153 115.292C74.5674 115.303 74.2369 115.312 73.9123 115.31C73.2601 115.306 72.6912 115.252 72.1882 115.093L71.5829 116.999ZM75.976 117.269C76.6934 117.269 77.803 117.407 78.5855 117.554L78.9543 115.588C78.1111 115.43 76.8666 115.269 75.976 115.269V117.269ZM78.5855 117.554C78.6648 117.569 78.6942 117.595 79.02 117.781C79.3034 117.944 79.7789 118.188 80.426 118.105L80.1701 116.121C80.1654 116.122 80.1699 116.122 80.1648 116.121C80.1473 116.115 80.1088 116.1 80.0136 116.046C79.8788 115.969 79.459 115.683 78.9543 115.588L78.5855 117.554ZM80.426 118.105C80.7172 118.067 80.9605 118.006 81.1226 117.967C81.2093 117.946 81.2639 117.934 81.3095 117.925C81.3526 117.918 81.3667 117.917 81.3639 117.918C81.332 117.918 81.278 117.905 81.2463 117.886C81.2416 117.884 81.3037 117.921 81.439 118.094L83.016 116.864C82.8041 116.592 82.566 116.346 82.2777 116.173C81.9625 115.983 81.6415 115.912 81.3287 115.918C81.0602 115.923 80.8056 115.986 80.6551 116.023C80.478 116.065 80.3376 116.099 80.1701 116.121L80.426 118.105ZM81.439 118.094C81.4842 118.152 81.5329 118.236 81.6295 118.41C81.7048 118.546 81.8353 118.787 82.0055 118.99C82.1843 119.203 82.5092 119.5 83.0097 119.553C83.4969 119.604 83.9084 119.398 84.2101 119.176L83.0234 117.566C82.9192 117.643 83.0055 117.541 83.2203 117.564C83.4485 117.588 83.5538 117.723 83.5381 117.705C83.5139 117.676 83.4749 117.614 83.3781 117.44C83.3026 117.304 83.1763 117.07 83.016 116.864L81.439 118.094ZM84.2101 119.176C84.4089 119.03 84.5718 118.883 84.6976 118.769C84.835 118.644 84.9098 118.575 84.9863 118.517C85.0513 118.467 85.0891 118.448 85.1161 118.438C85.1409 118.429 85.1889 118.415 85.2838 118.415V116.415C84.6222 116.415 84.1525 116.637 83.7728 116.927C83.6111 117.05 83.4596 117.192 83.3526 117.289C83.2341 117.397 83.1346 117.484 83.0234 117.566L84.2101 119.176ZM85.2838 118.415C85.8063 118.415 86.3136 118.288 86.7433 118.155C86.9626 118.088 87.1813 118.013 87.3835 117.943C87.5911 117.871 87.7819 117.805 87.9698 117.747C88.7757 117.495 89.1703 117.502 89.4497 117.682L90.5337 116.002C89.4213 115.284 88.2029 115.578 87.3733 115.838C87.1524 115.907 86.9329 115.983 86.7318 116.052C86.5255 116.123 86.3373 116.188 86.1545 116.244C85.78 116.359 85.5023 116.415 85.2838 116.415V118.415ZM89.4497 117.682C90.3216 118.245 91.301 118.169 92.0294 118.029C92.4056 117.956 92.7763 117.853 93.0923 117.765C93.4259 117.672 93.6916 117.598 93.927 117.554L93.5582 115.588C93.2206 115.652 92.865 115.752 92.5556 115.838C92.2287 115.929 91.9346 116.01 91.6505 116.065C91.0584 116.179 90.7355 116.132 90.5337 116.002L89.4497 117.682ZM93.927 117.554C94.2984 117.484 94.6141 117.317 94.8371 117.185C94.9532 117.116 95.0666 117.043 95.1619 116.982C95.2628 116.917 95.3465 116.864 95.4281 116.815C95.5973 116.715 95.6902 116.679 95.7417 116.668C95.7663 116.663 95.7588 116.665 95.7646 116.668L96.5984 114.85C95.6646 114.422 94.8513 114.832 94.4087 115.095C94.2908 115.164 94.1768 115.238 94.0811 115.299C93.98 115.364 93.8979 115.417 93.8189 115.463C93.652 115.562 93.5793 115.585 93.5582 115.588L93.927 117.554ZM95.7646 116.668C95.7263 116.65 95.7919 116.674 95.9873 116.939C96.0726 117.055 96.156 117.177 96.2608 117.329C96.3597 117.472 96.4746 117.636 96.5992 117.793C96.8288 118.083 97.1946 118.491 97.723 118.685C98.3441 118.914 98.9726 118.78 99.5267 118.399L98.3932 116.751C98.2593 116.843 98.306 116.769 98.4141 116.809C98.4296 116.814 98.3511 116.784 98.1677 116.552C98.0858 116.449 98.002 116.33 97.9053 116.191C97.8145 116.06 97.7054 115.899 97.5966 115.752C97.4039 115.49 97.075 115.069 96.5984 114.85L95.7646 116.668ZM99.5267 118.399C100.084 118.016 100.49 117.377 100.732 117.031C101.057 116.568 101.205 116.431 101.292 116.394L100.517 114.55C99.8117 114.847 99.3579 115.507 99.0938 115.884C98.7467 116.379 98.577 116.624 98.3932 116.751L99.5267 118.399ZM101.292 116.394C101.351 116.369 101.49 116.348 101.858 116.368C102.127 116.383 102.654 116.438 103.105 116.363L102.779 114.39C102.612 114.418 102.415 114.396 101.969 114.371C101.619 114.352 101.049 114.327 100.517 114.55L101.292 116.394ZM103.105 116.363C104.371 116.154 105.302 115.423 105.986 114.94C106.721 114.421 107.248 114.115 107.944 114.115V112.115C106.566 112.115 105.584 112.776 104.833 113.306C104.031 113.872 103.499 114.271 102.779 114.39L103.105 116.363ZM107.944 114.115C108.02 114.115 108.192 114.147 108.472 114.275C108.739 114.398 109.04 114.579 109.357 114.798C109.99 115.238 110.601 115.775 111.001 116.143L112.357 114.674C111.934 114.283 111.243 113.673 110.497 113.155C110.124 112.897 109.717 112.646 109.306 112.458C108.909 112.275 108.433 112.115 107.944 112.115V114.115ZM111.001 116.143C111.869 116.945 113.054 116.845 113.856 116.647C114.716 116.434 115.538 116.014 116.06 115.668L114.954 114.002C114.58 114.25 113.967 114.559 113.376 114.705C112.727 114.866 112.446 114.756 112.357 114.674L111.001 116.143ZM116.06 115.668C116.432 115.422 116.618 115.374 116.682 115.365C116.702 115.363 116.707 115.356 116.77 115.394C116.886 115.463 117.003 115.569 117.278 115.812C117.523 116.029 117.847 116.306 118.272 116.557L119.287 114.834C119.034 114.684 118.826 114.511 118.601 114.313C118.406 114.14 118.113 113.866 117.796 113.677C117.427 113.456 116.976 113.312 116.432 113.381C115.933 113.444 115.447 113.675 114.954 114.002L116.06 115.668ZM118.272 116.557C119.729 117.416 120.669 118.051 121.73 119.329L123.269 118.051C121.991 116.513 120.822 115.739 119.287 114.834L118.272 116.557ZM121.73 119.329C122.144 119.826 122.752 119.929 123.129 119.953C123.547 119.98 123.997 119.929 124.387 119.868C124.78 119.806 125.189 119.72 125.501 119.659C125.857 119.589 126.047 119.562 126.127 119.562V117.562C125.816 117.562 125.427 117.636 125.118 117.696C124.764 117.765 124.421 117.838 124.075 117.892C123.726 117.947 123.451 117.97 123.258 117.958C123.025 117.942 123.137 117.892 123.269 118.051L121.73 119.329ZM126.127 119.562C126.697 119.562 127.24 119.49 127.713 119.423C128.208 119.352 128.612 119.291 129.007 119.275L128.927 117.276C128.406 117.297 127.882 117.379 127.432 117.443C126.96 117.51 126.541 117.562 126.127 117.562V119.562ZM129.007 119.275C129.178 119.268 129.335 119.318 129.717 119.475C130.063 119.617 130.602 119.849 131.282 119.849V117.849C131.048 117.849 130.85 117.778 130.476 117.625C130.139 117.486 129.596 117.25 128.927 117.276L129.007 119.275ZM131.282 119.849C133.353 119.849 135.167 119.24 136.693 117.665L135.257 116.274C134.169 117.397 132.906 117.849 131.282 117.849V119.849ZM136.693 117.665C136.696 117.663 136.633 117.715 136.533 117.718C136.473 117.721 136.486 117.7 136.607 117.764C136.898 117.915 137.177 118.173 137.693 118.568C137.917 118.739 138.181 118.929 138.466 119.079C138.748 119.227 139.11 119.369 139.523 119.38C140.5 119.408 141.168 118.738 141.598 117.852L139.798 116.979C139.525 117.545 139.415 117.376 139.579 117.381C139.586 117.381 139.533 117.38 139.397 117.309C139.263 117.238 139.105 117.13 138.909 116.98C138.584 116.731 138.027 116.248 137.53 115.989C137.257 115.847 136.887 115.704 136.461 115.72C135.995 115.737 135.582 115.938 135.257 116.274L136.693 117.665ZM141.598 117.852C141.702 117.636 142.387 116.509 143.143 115.452C143.517 114.929 143.876 114.469 144.16 114.17C144.308 114.014 144.394 113.946 144.42 113.929C144.434 113.92 144.384 113.957 144.282 113.981C144.169 114.007 143.936 114.028 143.689 113.887L144.684 112.152C144.364 111.968 144.042 111.983 143.826 112.033C143.621 112.081 143.454 112.173 143.34 112.246C143.11 112.394 142.893 112.599 142.709 112.794C142.328 113.195 141.905 113.745 141.516 114.289C140.745 115.368 139.979 116.607 139.798 116.979L141.598 117.852ZM143.689 113.887C143.535 113.799 143.508 113.705 143.573 113.814C143.618 113.892 143.678 114.017 143.754 114.202C143.915 114.597 144.051 115.012 144.253 115.543C144.43 116.011 144.656 116.563 144.945 116.979C145.089 117.187 145.302 117.442 145.606 117.614C145.953 117.811 146.383 117.878 146.82 117.716L146.123 115.841C146.297 115.776 146.481 115.811 146.594 115.875C146.663 115.914 146.655 115.936 146.589 115.839C146.455 115.647 146.302 115.308 146.123 114.835C145.968 114.426 145.771 113.852 145.605 113.445C145.517 113.229 145.414 113.001 145.297 112.8C145.198 112.632 145.006 112.336 144.684 112.152L143.689 113.887ZM146.82 117.716C147.506 117.461 147.904 116.851 148.136 116.428C148.376 115.99 148.597 115.429 148.751 115.086C148.838 114.891 148.912 114.741 148.98 114.629C149.052 114.511 149.085 114.489 149.067 114.502C149.029 114.533 148.916 114.596 148.762 114.584C148.636 114.575 148.61 114.523 148.701 114.596L149.953 113.036C149.679 112.816 149.331 112.622 148.916 112.59C148.472 112.556 148.101 112.717 147.828 112.932C147.576 113.131 147.397 113.383 147.269 113.595C147.136 113.813 147.023 114.051 146.925 114.27C146.709 114.753 146.571 115.122 146.382 115.468C146.185 115.828 146.084 115.855 146.123 115.841L146.82 117.716ZM148.701 114.596C150.433 115.986 153.218 117.027 155.149 117.58L155.7 115.658C153.821 115.119 151.36 114.165 149.953 113.036L148.701 114.596ZM155.149 117.58C155.835 117.777 156.346 118.194 157.129 118.744C157.859 119.258 158.797 119.849 160.086 119.849V117.849C159.453 117.849 158.952 117.581 158.278 117.108C157.656 116.67 156.797 115.972 155.7 115.658L155.149 117.58ZM160.086 119.849C160.85 119.849 161.519 119.61 162.041 119.409C162.612 119.19 162.995 119.026 163.407 118.961L163.093 116.985C162.417 117.093 161.782 117.367 161.324 117.542C160.819 117.736 160.45 117.849 160.086 117.849V119.849ZM163.407 118.961C164.863 118.729 165.909 118.415 167.124 118.415V116.415C165.704 116.415 164.242 116.803 163.093 116.985L163.407 118.961ZM167.124 118.415C167.721 118.415 168.247 118.532 168.873 118.676C169.477 118.816 170.196 118.989 171.014 118.989V116.989C170.459 116.989 169.958 116.875 169.323 116.728C168.71 116.586 167.978 116.415 167.124 116.415V118.415ZM171.014 118.989C172.023 118.989 173.193 119.053 174.424 118.612L173.748 116.729C172.922 117.026 172.166 116.989 171.014 116.989V118.989ZM174.424 118.612C175.045 118.389 175.51 117.894 175.757 117.651C175.91 117.5 176.013 117.402 176.108 117.331C176.197 117.263 176.231 117.258 176.223 117.259L175.776 115.31C175.096 115.466 174.603 115.979 174.353 116.227C174.005 116.569 173.868 116.686 173.748 116.729L174.424 118.612ZM176.223 117.259C176.031 117.303 175.939 117.204 176.019 117.263C176.097 117.321 176.218 117.446 176.367 117.655C176.663 118.069 176.908 118.573 177.07 118.89L178.851 117.98C178.719 117.722 178.398 117.056 177.994 116.492C177.794 116.211 177.531 115.894 177.209 115.656C176.89 115.42 176.383 115.171 175.776 115.31L176.223 117.259ZM177.07 118.89C177.285 119.31 177.591 119.652 177.985 119.877C178.378 120.102 178.801 120.177 179.2 120.155C179.97 120.113 180.683 119.715 181.203 119.231L179.842 117.766C179.551 118.037 179.26 118.149 179.091 118.158C179.02 118.162 178.989 118.148 178.976 118.14C178.965 118.134 178.913 118.102 178.851 117.98L177.07 118.89ZM181.203 119.231C181.448 119.004 181.78 118.864 182.329 118.668C182.815 118.494 183.529 118.261 184.128 117.781L182.876 116.221C182.593 116.449 182.233 116.578 181.657 116.784C181.145 116.967 180.429 117.221 179.842 117.766L181.203 119.231ZM184.128 117.781C184.29 117.651 184.485 117.581 184.79 117.554C185.16 117.521 185.453 117.555 186.002 117.555V115.555C185.682 115.555 185.09 115.519 184.611 115.562C184.065 115.611 183.446 115.764 182.876 116.221L184.128 117.781ZM186.002 117.555C187.11 117.555 187.897 117.084 188.503 116.541C188.793 116.282 189.054 115.995 189.28 115.747C189.518 115.486 189.721 115.261 189.94 115.058L188.579 113.593C188.287 113.864 188.025 114.155 187.801 114.401C187.566 114.659 187.371 114.87 187.17 115.05C186.795 115.386 186.463 115.555 186.002 115.555V117.555ZM189.94 115.058C189.829 115.161 189.768 115.144 189.934 115.106C190.064 115.076 190.258 115.049 190.518 115.032C191.037 114.999 191.702 115.009 192.408 115.043C193.11 115.076 193.822 115.129 194.431 115.175C195.013 115.219 195.556 115.262 195.85 115.262V113.262C195.653 113.262 195.217 113.229 194.582 113.181C193.976 113.135 193.236 113.079 192.502 113.045C191.774 113.011 191.02 112.996 190.389 113.036C190.075 113.057 189.761 113.093 189.483 113.157C189.24 113.213 188.868 113.324 188.579 113.593L189.94 115.058ZM195.85 115.262C196.223 115.262 196.633 115.366 197.15 115.541C197.615 115.698 198.247 115.945 198.838 116.081L199.285 114.131C198.825 114.026 198.397 113.851 197.791 113.646C197.238 113.459 196.568 113.262 195.85 113.262V115.262ZM198.838 116.081L198.857 116.085L199.304 114.136L199.284 114.131L198.838 116.081ZM198.857 116.085C199.852 116.313 200.484 116.48 201.003 116.985L202.398 115.553C201.42 114.599 200.227 114.347 199.304 114.136L198.857 116.085ZM201.003 116.985C202.066 118.021 203.168 118.767 204.451 119.068C205.741 119.372 207.082 119.195 208.566 118.638L207.863 116.766C206.62 117.232 205.697 117.307 204.908 117.121C204.112 116.934 203.32 116.451 202.398 115.553L201.003 116.985ZM208.566 118.638C209.539 118.273 210.404 117.875 211.38 117.577C212.323 117.288 213.178 117.162 213.949 117.314L214.335 115.351C213.096 115.108 211.871 115.335 210.795 115.664C209.752 115.983 208.659 116.467 207.863 116.766L208.566 118.638ZM213.949 117.314C214.336 117.39 214.555 117.488 214.982 117.623C215.399 117.755 215.874 117.866 216.526 117.841L216.45 115.843C216.097 115.856 215.86 115.803 215.586 115.716C215.322 115.633 214.87 115.456 214.335 115.351L213.949 117.314ZM216.526 117.841C216.922 117.826 217.273 117.708 217.549 117.589C217.819 117.474 218.089 117.325 218.281 117.223C218.5 117.108 218.645 117.038 218.763 116.999C218.874 116.963 218.883 116.982 218.842 116.973L219.289 115.023C218.852 114.923 218.452 114.997 218.145 115.097C217.844 115.195 217.562 115.341 217.346 115.455C217.105 115.583 216.935 115.677 216.761 115.751C216.594 115.823 216.5 115.841 216.45 115.843L216.526 117.841ZM218.842 116.973C219.603 117.147 220.135 117.31 220.605 117.555C221.062 117.795 221.507 118.139 222.041 118.735L223.531 117.402C222.875 116.668 222.245 116.157 221.533 115.784C220.832 115.417 220.098 115.209 219.289 115.023L218.842 116.973ZM222.041 118.735C222.248 118.967 222.508 119.167 222.829 119.276C223.159 119.389 223.484 119.383 223.775 119.306C224.304 119.166 224.702 118.794 224.952 118.522C225.223 118.228 225.461 117.89 225.635 117.642C225.729 117.508 225.799 117.406 225.863 117.32C225.933 117.225 225.952 117.209 225.936 117.224L224.575 115.759C224.446 115.879 224.333 116.025 224.256 116.129C224.172 116.242 224.08 116.376 223.997 116.494C223.817 116.751 223.649 116.985 223.48 117.168C223.291 117.374 223.217 117.385 223.262 117.373C223.311 117.36 223.391 117.355 223.476 117.384C223.552 117.41 223.567 117.442 223.531 117.402L222.041 118.735ZM225.936 117.224C225.798 117.352 225.659 117.41 225.591 117.433C225.516 117.46 225.452 117.472 225.415 117.478C225.343 117.49 225.285 117.491 225.264 117.491C225.215 117.491 225.179 117.487 225.174 117.486C225.157 117.484 225.152 117.483 225.171 117.486C225.203 117.492 225.257 117.502 225.337 117.517C225.499 117.549 225.701 117.591 225.939 117.638C226.168 117.684 226.416 117.732 226.633 117.77C226.818 117.801 227.073 117.842 227.262 117.842V115.842C227.273 115.842 227.191 115.836 226.971 115.798C226.782 115.766 226.556 115.722 226.331 115.677C226.115 115.634 225.884 115.587 225.723 115.555C225.641 115.539 225.562 115.524 225.499 115.513C225.47 115.509 225.427 115.502 225.383 115.497C225.364 115.495 225.318 115.49 225.262 115.491C225.236 115.491 225.176 115.491 225.1 115.503C225.085 115.506 224.814 115.537 224.575 115.759L225.936 117.224ZM227.262 117.842C227.788 117.842 228.301 117.754 228.721 117.686C229.167 117.612 229.535 117.555 229.902 117.555V115.555C229.348 115.555 228.825 115.642 228.397 115.712C227.942 115.786 227.596 115.842 227.262 115.842V117.842ZM229.902 117.555H237.141V115.555H229.902V117.555ZM237.141 117.555C238.044 117.555 238.282 117.596 238.457 117.675C238.659 117.767 238.865 117.949 239.554 118.634L240.964 117.216C240.379 116.633 239.891 116.13 239.285 115.855C238.651 115.566 237.968 115.555 237.141 115.555V117.555ZM239.554 118.634C240.281 119.358 241.231 119.286 241.848 119.128C242.487 118.965 243.088 118.639 243.458 118.426L242.463 116.691C242.109 116.894 241.71 117.099 241.354 117.19C241.181 117.234 241.069 117.237 241.008 117.229C240.981 117.226 240.97 117.221 240.969 117.22C240.969 117.22 240.968 117.22 240.968 117.22C240.969 117.22 240.969 117.22 240.969 117.22C240.969 117.22 240.968 117.22 240.968 117.219C240.967 117.219 240.966 117.218 240.964 117.216L239.554 118.634ZM243.458 118.426C243.912 118.166 244.536 118.106 245.398 118.171C245.823 118.203 246.244 118.26 246.708 118.314C247.154 118.366 247.636 118.415 248.101 118.415V116.415C247.762 116.415 247.381 116.379 246.94 116.327C246.518 116.278 246.027 116.213 245.55 116.177C244.608 116.105 243.465 116.117 242.463 116.691L243.458 118.426ZM248.101 118.415C248.585 118.415 248.651 118.486 248.67 118.498C248.714 118.529 248.773 118.582 248.907 118.717C249.028 118.84 249.205 119.025 249.427 119.231L250.788 117.766C250.608 117.599 250.479 117.462 250.331 117.313C250.195 117.175 250.022 117.003 249.811 116.856C249.319 116.514 248.783 116.415 248.101 116.415V118.415ZM249.427 119.231C249.653 119.442 249.918 119.529 250.073 119.57C250.25 119.618 250.435 119.643 250.603 119.656C250.942 119.683 251.323 119.674 251.674 119.649C252.031 119.624 252.387 119.58 252.685 119.529C252.833 119.504 252.977 119.475 253.104 119.443C253.209 119.416 253.377 119.37 253.529 119.292L252.612 117.514C252.678 117.48 252.701 117.482 252.616 117.503C252.553 117.519 252.463 117.538 252.347 117.558C252.117 117.597 251.826 117.633 251.533 117.654C251.234 117.675 250.964 117.679 250.764 117.663C250.664 117.654 250.608 117.643 250.589 117.638C250.546 117.627 250.657 117.645 250.788 117.766L249.427 119.231ZM253.529 119.292C253.52 119.296 253.544 119.284 253.619 119.261C253.688 119.241 253.777 119.219 253.882 119.196C254.094 119.151 254.335 119.112 254.558 119.078C254.754 119.05 254.991 119.018 255.1 118.999C255.125 118.995 255.186 118.985 255.248 118.968C255.25 118.967 255.38 118.936 255.517 118.854C255.559 118.828 255.636 118.777 255.716 118.695C255.792 118.617 255.926 118.454 255.979 118.201C256.116 117.543 255.61 117.196 255.516 117.139C255.382 117.058 255.26 117.029 255.231 117.022C255.182 117.01 255.142 117.004 255.12 117.001C255.075 116.995 255.036 116.993 255.015 116.992C254.969 116.989 254.92 116.989 254.877 116.989V118.989C254.911 118.989 254.919 118.989 254.913 118.989C254.912 118.989 254.889 118.988 254.856 118.984C254.839 118.981 254.804 118.976 254.759 118.965C254.734 118.959 254.614 118.931 254.482 118.851C254.39 118.795 253.884 118.449 254.021 117.792C254.074 117.54 254.208 117.377 254.283 117.3C254.362 117.219 254.438 117.169 254.48 117.143C254.562 117.093 254.633 117.068 254.655 117.059C254.687 117.048 254.712 117.041 254.725 117.038C254.764 117.027 254.788 117.024 254.764 117.028C254.679 117.042 254.53 117.061 254.266 117.1C254.029 117.135 253.738 117.182 253.463 117.24C253.216 117.293 252.879 117.377 252.612 117.514L253.529 119.292ZM254.877 116.989C254.189 116.989 253.567 117.18 253.107 117.318C252.596 117.473 252.283 117.562 251.99 117.562V119.562C252.635 119.562 253.247 119.365 253.685 119.233C254.175 119.085 254.527 118.989 254.877 118.989V116.989ZM60.1871 115.983C58.7464 115.709 57.3364 115.329 56.2447 114.686L55.2299 116.409C56.6297 117.234 58.3203 117.663 59.8129 117.948L60.1871 115.983ZM56.2447 114.686C55.771 114.407 55.0991 113.957 54.0964 114.003L54.1894 116.001C54.5039 115.987 54.6686 116.079 55.2299 116.409L56.2447 114.686ZM54.0964 114.003C53.4204 114.035 52.7474 114.412 52.301 114.69C52.0516 114.845 51.8137 115.01 51.6102 115.152C51.3957 115.303 51.2376 115.416 51.1076 115.5L52.1995 117.176C52.367 117.067 52.5717 116.921 52.7582 116.79C52.9559 116.651 53.1575 116.513 53.3589 116.387C53.8142 116.103 54.0885 116.006 54.1894 116.001L54.0964 114.003ZM51.1076 115.5C50.7057 115.762 50.3753 116.045 50.0828 116.311C49.7743 116.59 49.5439 116.815 49.2542 117.058L50.5387 118.591C50.8667 118.316 51.1786 118.017 51.426 117.792C51.6895 117.554 51.9288 117.353 52.1995 117.176L51.1076 115.5ZM49.2542 117.058C48.9524 117.31 48.7037 117.648 48.531 117.886C48.3264 118.168 48.1953 118.356 48.0611 118.5C47.9148 118.656 47.9331 118.569 48.0941 118.554C48.3203 118.532 48.3714 118.677 48.214 118.503L46.7305 119.844C47.1036 120.257 47.6262 120.608 48.2853 120.545C48.8792 120.488 49.292 120.112 49.5223 119.865C49.7646 119.606 49.9922 119.277 50.1489 119.062C50.3376 118.802 50.453 118.662 50.5387 118.591L49.2542 117.058ZM48.214 118.503C48.0976 118.374 47.8766 118.113 47.7105 117.941C47.5241 117.747 47.2638 117.505 46.9257 117.342C46.5557 117.163 46.1252 117.095 45.6598 117.208C45.2262 117.314 44.8343 117.56 44.473 117.874L45.7858 119.383C46.0109 119.187 46.1218 119.154 46.1334 119.151C46.1342 119.151 46.1182 119.154 46.0925 119.151C46.0678 119.148 46.0541 119.142 46.0561 119.143C46.0739 119.151 46.1378 119.191 46.2698 119.328C46.332 119.392 46.3978 119.466 46.476 119.556C46.5497 119.64 46.6401 119.744 46.7305 119.844L48.214 118.503ZM44.473 117.874C43.8825 118.388 43.536 119.017 43.3361 119.303C43.1339 119.594 42.9499 119.794 42.5189 119.954L43.2168 121.828C44.1398 121.485 44.6203 120.959 44.9771 120.447C45.3363 119.931 45.4435 119.681 45.7858 119.383L44.473 117.874ZM42.5189 119.954C42.3982 119.999 42.3352 120.001 42.3161 120C42.3023 119.999 42.2998 119.998 42.2937 119.994C42.2604 119.976 42.1592 119.893 42.0136 119.622C41.8713 119.357 41.7521 119.042 41.6035 118.657C41.4728 118.319 41.2998 117.87 41.0656 117.517L39.3987 118.622C39.4902 118.76 39.5889 118.992 39.7378 119.378C39.8687 119.717 40.0368 120.168 40.2515 120.568C40.4629 120.962 40.7882 121.442 41.3127 121.737C41.8933 122.064 42.5524 122.076 43.2168 121.828L42.5189 119.954ZM41.0656 117.517C40.7184 116.993 40.0523 116.517 39.3826 116.295C38.7064 116.071 37.5984 116.002 36.9167 117.002L38.569 118.129C38.5747 118.12 38.5699 118.13 38.5515 118.141C38.5339 118.153 38.5212 118.155 38.5229 118.155C38.5361 118.152 38.6108 118.146 38.7539 118.193C38.891 118.239 39.0404 118.317 39.1726 118.413C39.3115 118.514 39.382 118.597 39.3987 118.622L41.0656 117.517ZM36.9167 117.002C37.034 116.83 37.156 116.836 36.9948 116.882C36.8702 116.917 36.684 116.946 36.4271 116.97C36.3036 116.982 36.1763 116.991 36.0415 117.002C35.9103 117.011 35.7693 117.022 35.6345 117.035C35.3916 117.057 35.0581 117.095 34.7745 117.195L35.4398 119.081C35.4384 119.081 35.4672 119.072 35.5436 119.059C35.6159 119.047 35.7069 119.037 35.8204 119.026C35.9338 119.015 36.0553 119.006 36.1919 118.996C36.3249 118.986 36.4706 118.975 36.6162 118.961C36.8973 118.934 37.233 118.893 37.5401 118.806C37.8107 118.729 38.2744 118.561 38.569 118.129L36.9167 117.002ZM34.7745 117.195C34.3459 117.346 33.2772 117.445 32.1636 117.364C31.627 117.326 31.143 117.25 30.7794 117.144C30.5979 117.092 30.4716 117.039 30.3926 116.996C30.3064 116.948 30.3267 116.94 30.369 117.002L28.7167 118.129C28.916 118.421 29.1888 118.616 29.4293 118.748C29.677 118.885 29.9515 118.987 30.2234 119.065C30.7668 119.223 31.4004 119.315 32.0202 119.359C33.2195 119.446 34.6191 119.37 35.4398 119.081L34.7745 117.195ZM30.369 117.002C30.2354 116.806 30.1501 116.64 30.0313 116.425C29.9306 116.243 29.7657 115.947 29.4989 115.707C28.8459 115.12 27.9995 115.184 27.1311 115.375L27.5617 117.328C27.9504 117.243 28.143 117.235 28.2277 117.242C28.2737 117.246 28.2186 117.245 28.1624 117.195C28.149 117.183 28.1732 117.198 28.2817 117.394C28.3722 117.558 28.5162 117.835 28.7167 118.129L30.369 117.002ZM27.1311 115.375C26.1557 115.59 25.24 115.72 24.2714 115.72V117.72C25.4256 117.72 26.4912 117.565 27.5617 117.328L27.1311 115.375ZM24.2714 115.72C24.0588 115.72 23.834 115.732 23.6684 115.738C23.4858 115.745 23.3467 115.746 23.227 115.738C22.9954 115.721 22.9569 115.674 22.9447 115.661L21.4982 117.043C21.9934 117.561 22.6045 117.698 23.0833 117.733C23.3188 117.75 23.5501 117.744 23.743 117.737C23.9529 117.729 24.1086 117.72 24.2714 117.72V115.72ZM22.9447 115.661C22.7322 115.439 22.4779 115.332 22.3069 115.276C22.1226 115.215 21.9322 115.182 21.7615 115.162C21.42 115.122 21.0357 115.122 20.6853 115.134C20.3289 115.145 19.9669 115.171 19.6666 115.192C19.3456 115.214 19.1275 115.229 19 115.229V117.229C19.216 117.229 19.5221 117.207 19.8069 117.187C20.1124 117.165 20.4376 117.143 20.7505 117.133C21.0695 117.122 21.3367 117.126 21.5295 117.149C21.626 117.16 21.6733 117.173 21.6852 117.177C21.7103 117.185 21.6103 117.16 21.4982 117.043L22.9447 115.661ZM5 15L5 119H7L7 15H5ZM6 120H19V118H6V120ZM20 119L20 15H18L18 119H20ZM19 14H7.34483V16H19V14ZM6 16H11V14H6V16ZM254 17V121H256V17H254ZM255 122H268V120H255V122ZM269 121V17H267V121H269ZM268 16H256.345V18H268V16ZM255 18H260V16H255V18ZM1.5 15.5H24.5V13.5H1.5V15.5ZM25.5 14.5V11H23.5V14.5H25.5ZM0.5 11L0.5 14.5H2.5L2.5 11H0.5ZM8 10H1.5V12H8V10ZM9 11V6H7V11H9ZM24.5 10H16.25V12H24.5V10ZM16.25 10H8V12H16.25V10ZM15.0012 6.04994L15.2512 11.0499L17.2488 10.9501L16.9988 5.95006L15.0012 6.04994ZM14 7H16V5H14V7ZM15 6L15 1H13L13 6H15ZM14 0H10V2H14V0ZM8 7H10V5H8V7ZM9 1V6H11L11 1H9ZM250.5 18H273.5V16H250.5V18ZM274.5 17V13.5H272.5V17H274.5ZM249.5 13.5V17H251.5V13.5H249.5ZM257 12.5H250.5V14.5H257V12.5ZM258 13.5V8.5H256V13.5H258ZM273.5 12.5H265.25V14.5H273.5V12.5ZM265.25 12.5H257V14.5H265.25V12.5ZM264.001 8.54994L264.251 13.5499L266.249 13.4501L265.999 8.45006L264.001 8.54994ZM263 9.5H265V7.5H263V9.5ZM264 8.5V3.5H262V8.5H264ZM263 2.5H259V4.5H263V2.5ZM257 9.5H259V7.5H257V9.5ZM258 3.5V8.5H260V3.5H258ZM273 121V124.5H275V121H273ZM252 124.5V121H250V124.5H252ZM257.5 123.5H251V125.5H257.5V123.5ZM256.5 124.5V129.5H258.5V124.5H256.5ZM274 123.5H265.75V125.5H274V123.5ZM265.75 123.5H257.5V125.5H265.75V123.5ZM266.499 129.55L266.749 124.55L264.751 124.45L264.501 129.45L266.499 129.55ZM263.5 130.5H265.5V128.5H263.5V130.5ZM262.5 129.5V134.5H264.5V129.5H262.5ZM263.5 133.5H259.5V135.5H263.5V133.5ZM257.5 130.5H259.5V128.5H257.5V130.5ZM260.5 134.5V129.5H258.5V134.5H260.5ZM24 119V122.5H26V119H24ZM3 122.5V119H1L1 122.5H3ZM8.5 121.5H2V123.5H8.5V121.5ZM7.5 122.5L7.5 127.5H9.5V122.5H7.5ZM25 121.5H16.75V123.5H25V121.5ZM16.75 121.5H8.5V123.5H16.75V121.5ZM17.4988 127.55L17.7488 122.55L15.7512 122.45L15.5012 127.45L17.4988 127.55ZM14.5 128.5H16.5V126.5H14.5V128.5ZM13.5 127.5V132.5H15.5V127.5H13.5ZM14.5 131.5H10.5V133.5H14.5V131.5ZM8.5 128.5H10.5V126.5H8.5V128.5ZM11.5 132.5V127.5H9.5V132.5H11.5ZM10 7H14V5H10V7ZM259 9.5H263V7.5H259V9.5ZM259.5 130.5H263.5V128.5H259.5V130.5ZM251 122H274V120H251V122ZM10.5 128.5H14.5V126.5H10.5V128.5ZM2 120H25V118H2V120Z" fill="black"/>
</svg>
